<?xml version="1.0" encoding="utf-8"?>
<!-- Generator: Adobe Illustrator 16.0.0, SVG Export Plug-In . SVG Version: 6.00 Build 0)  -->
<!DOCTYPE svg PUBLIC "-//W3C//DTD SVG 1.1//EN" "http://www.w3.org/Graphics/SVG/1.1/DTD/svg11.dtd">
<svg version="1.1" xmlns="http://www.w3.org/2000/svg" xmlns:xlink="http://www.w3.org/1999/xlink" x="0px" y="0px" width="1280px"
	 height="800px" viewBox="0 0 1280 800" enable-background="new 0 0 1280 800" xml:space="preserve">
<g id="sky">
	<rect fill="#BDE6FA" width="1280" height="802.324"/>
</g>
<g id="mountain" display="none">
	<g display="inline">
		<g>
			<path fill="#5DBA55" d="M15.16,682.94c13.972-34.882,45.021-64.781,68.308-91.356c26.391-29.9,60.545-69.767,102.462-68.105
				c45.022,1.662,82.279,43.189,117.987,69.767c34.152,24.914,83.832,39.865,111.775,73.085"/>
		</g>
		<g>
			<path fill="#72C469" d="M383.387,583.617c-48.499-8.648-109.96,44.966-142.883,81.837c-0.035,0.525-0.21,1.073-0.562,1.631
				c-2.48,3.923-4.707,7.939-6.816,11.998c10.256,0.729,20.537,1.542,30.908,2.516c86.528,9.617,172.678,14.799,258.012-13.615
				C470.785,651.565,434.854,592.798,383.387,583.617z"/>
		</g>
	</g>
</g>
<g id="new_ground" display="none">
	<g id="Layer_10" display="inline">
		<path fill="#98CD7D" d="M228.545,701.677c0,0,538.267-123.311,789.267,12.739L872,919.185l-579.891-23.303L228.545,701.677z"/>
	</g>
	<path display="inline" fill="#75B250" d="M-21,646.348c0,0,594-65.048,754,192.943c160,257.99,0,3.328,0,3.328l-754,2.497V646.348z
		"/>
	<g id="Layer_9" display="inline">
		<path fill="#6DA34A" d="M363.672,866.754c0,0,370.112-345.003,936.328-241.845v227.282L363.672,866.754z"/>
	</g>
</g>
<g id="ground" display="none">
	<rect x="-15" y="585.564" display="inline" fill="#98CD7D" width="1305" height="216.76"/>
</g>
<g id="grass" display="none">
	<g display="inline">
		<g>
			<g>
				<g>
					<path fill="#6DBF81" d="M893.407,677.38c1.611,4.493,2.266,9.054,2.308,13.82c0.009,0.967,1.509,0.968,1.5,0
						c-0.043-4.896-0.705-9.599-2.36-14.219C894.53,676.078,893.08,676.467,893.407,677.38L893.407,677.38z"/>
				</g>
			</g>
			<g>
				<g>
					<path fill="#6DBF81" d="M887.962,685.792c0.704,2.535,1.355,5.437,3.305,7.341c0.692,0.676,1.753-0.384,1.061-1.061
						c-1.749-1.709-2.287-4.404-2.918-6.679C889.15,684.463,887.703,684.858,887.962,685.792L887.962,685.792z"/>
				</g>
			</g>
			<g>
				<g>
					<path fill="#6DBF81" d="M900.224,692.981c0.888-1.762,0.677-3.862,1.557-5.608c0.435-0.861-0.859-1.621-1.295-0.758
						c-0.888,1.762-0.677,3.862-1.557,5.608C898.494,693.086,899.788,693.845,900.224,692.981L900.224,692.981z"/>
				</g>
			</g>
		</g>
		<g>
			<g>
				<g>
					<path fill="#6DBF81" d="M886.599,634.947c2.207,2.089,3.126,5.187,3.697,8.082c0.188,0.948,1.634,0.546,1.447-0.398
						c-0.62-3.141-1.694-6.482-4.084-8.744C886.957,633.223,885.895,634.281,886.599,634.947L886.599,634.947z"/>
				</g>
			</g>
			<g>
				<g>
					<path fill="#6DBF81" d="M895.556,644.61c1.949-3.626,3.318-7.545,4.744-11.396c0.336-0.909-1.114-1.298-1.447-0.398
						c-1.381,3.732-2.704,7.524-4.592,11.037C893.803,644.705,895.098,645.462,895.556,644.61L895.556,644.61z"/>
				</g>
			</g>
			<g>
				<g>
					<path fill="#6DBF81" d="M894.103,638.623c0.002-4.163,0.047-8.304,0.752-12.419c0.161-0.945-1.284-1.351-1.447-0.398
						c-0.727,4.248-0.803,8.518-0.805,12.817C892.603,639.591,894.103,639.59,894.103,638.623L894.103,638.623z"/>
				</g>
			</g>
		</g>
		<g>
			<g>
				<g>
					<path fill="#6DBF81" d="M804.291,707.972c3.353,1.591,5.36,4.579,6.655,7.964c0.343,0.895,1.793,0.506,1.447-0.398
						c-1.429-3.733-3.638-7.102-7.345-8.86C804.18,706.265,803.418,707.558,804.291,707.972L804.291,707.972z"/>
				</g>
			</g>
			<g>
				<g>
					<path fill="#6DBF81" d="M817.062,714.534c1.483-4.157,2.302-8.402,2.36-12.817c0.013-0.968-1.487-0.967-1.5,0
						c-0.057,4.288-0.868,8.387-2.308,12.419C815.289,715.049,816.738,715.438,817.062,714.534L817.062,714.534z"/>
				</g>
			</g>
			<g>
				<g>
					<path fill="#6DBF81" d="M812.503,701.916c0.704,4.115,0.749,8.256,0.751,12.419c0,0.968,1.5,0.968,1.5,0
						c-0.002-4.3-0.078-8.569-0.804-12.817C813.787,700.565,812.342,700.971,812.503,701.916L812.503,701.916z"/>
				</g>
			</g>
		</g>
		<g>
			<g>
				<g>
					<path fill="#6DBF81" d="M704.838,800.632c-1.621-2.432-3.282-4.803-5.714-6.491c-0.797-0.554-1.546,0.748-0.758,1.295
						c2.209,1.533,3.706,3.749,5.177,5.954C704.076,802.189,705.377,801.439,704.838,800.632L704.838,800.632z"/>
				</g>
			</g>
			<g>
				<g>
					<path fill="#6DBF81" d="M710.387,800.233c0.041-2.649,0.699-5.085,1.529-7.58c0.306-0.92-1.144-1.312-1.447-0.398
						c-0.871,2.62-1.539,5.201-1.582,7.979C708.872,801.201,710.372,801.2,710.387,800.233L710.387,800.233z"/>
				</g>
			</g>
			<g>
				<g>
					<path fill="#6DBF81" d="M705.616,795.187c-1.412-2.926-2.249-6.017-3.035-9.155c-0.235-0.938-1.682-0.54-1.447,0.398
						c0.819,3.268,1.719,6.471,3.188,9.515C704.741,796.814,706.035,796.054,705.616,795.187L705.616,795.187z"/>
				</g>
			</g>
		</g>
	</g>
	<g display="inline">
		<g>
			<g>
				<g>
					<path fill="#2D7641" d="M775.823,808.142c-0.001-4.701-0.161-9.356-0.778-14.021c-0.125-0.944-1.627-0.957-1.5,0
						c0.617,4.665,0.777,9.32,0.778,14.021C774.323,809.109,775.823,809.109,775.823,808.142L775.823,808.142z"/>
				</g>
			</g>
			<g>
				<g>
					<path fill="#2D7641" d="M778.936,806.739c0.059-2.82,0.78-5.511,1.528-8.213c0.258-0.934-1.189-1.329-1.447-0.398
						c-0.783,2.832-1.52,5.657-1.581,8.611C777.415,807.707,778.915,807.705,778.936,806.739L778.936,806.739z"/>
				</g>
			</g>
			<g>
				<g>
					<path fill="#2D7641" d="M770.274,810.566c-1.267-2.232-2.888-4.049-4.784-5.76c-0.716-0.646-1.78,0.411-1.061,1.061
						c1.805,1.628,3.343,3.329,4.55,5.457C769.456,812.165,770.753,811.409,770.274,810.566L770.274,810.566z"/>
				</g>
			</g>
		</g>
		<g>
			<g>
				<g>
					<path fill="#2D7641" d="M527.666,649.308c1.7,0.001,3.542,0.038,4.916,1.182c0.737,0.614,1.805-0.44,1.061-1.061
						c-1.714-1.428-3.825-1.619-5.976-1.621C526.699,647.807,526.699,649.307,527.666,649.308L527.666,649.308z"/>
				</g>
			</g>
			<g>
				<g>
					<path fill="#2D7641" d="M530.399,635.184c3.368,2.215,4.53,7.052,5.101,10.768c0.146,0.954,1.592,0.547,1.446-0.398
						c-0.637-4.146-2.062-9.213-5.791-11.664C530.346,633.355,529.595,634.655,530.399,635.184L530.399,635.184z"/>
				</g>
			</g>
			<g>
				<g>
					<path fill="#2D7641" d="M540.863,644.351c-0.001-3.793,0.126-7.709-0.805-11.416c-0.235-0.938-1.682-0.54-1.446,0.398
						c0.896,3.57,0.75,7.363,0.751,11.018C539.363,645.318,540.863,645.318,540.863,644.351L540.863,644.351z"/>
				</g>
			</g>
		</g>
		<g>
			<g>
				<g>
					<path fill="#2D7641" d="M425.034,651.561c0.768,3.818,2.345,7.399,3.112,11.218c0.19,0.948,1.636,0.546,1.446-0.398
						c-0.767-3.818-2.344-7.399-3.112-11.218C426.29,650.214,424.844,650.616,425.034,651.561L425.034,651.561z"/>
				</g>
			</g>
			<g>
				<g>
					<path fill="#2D7641" d="M431.953,662.579c0.057-5.618,0.721-11.206,0.778-16.825c0.01-0.968-1.49-0.967-1.5,0
						c-0.057,5.619-0.721,11.207-0.778,16.825C430.443,663.547,431.943,663.546,431.953,662.579L431.953,662.579z"/>
				</g>
			</g>
			<g>
				<g>
					<path fill="#2D7641" d="M434.315,663.329c2.481-0.078,3.273-2.77,3.834-4.758c0.264-0.933-1.184-1.328-1.446-0.398
						c-0.333,1.181-0.796,3.605-2.388,3.656C433.35,661.859,433.347,663.359,434.315,663.329L434.315,663.329z"/>
				</g>
			</g>
		</g>
		<g>
			<g>
				<g>
					<path fill="#2D7641" d="M455.793,621.839c2.872,2.217,5.083,5.071,6.732,8.288c0.441,0.86,1.735,0.102,1.295-0.758
						c-1.775-3.463-4.186-6.445-7.271-8.825C455.784,619.953,455.039,621.257,455.793,621.839L455.793,621.839z"/>
				</g>
			</g>
			<g>
				<g>
					<path fill="#2D7641" d="M467.294,627.416c-0.036-2.655-0.513-5.231-1.658-7.64c-0.415-0.873-1.708-0.111-1.295,0.758
						c1.028,2.162,1.421,4.501,1.453,6.882C465.807,628.383,467.307,628.384,467.294,627.416L467.294,627.416z"/>
				</g>
			</g>
			<g>
				<g>
					<path fill="#2D7641" d="M469.266,629.869c0.969-1.938,1.926-3.89,3.112-5.705c0.531-0.813-0.769-1.563-1.295-0.758
						c-1.187,1.816-2.143,3.769-3.112,5.705C467.539,629.974,468.833,630.734,469.266,629.869L469.266,629.869z"/>
				</g>
			</g>
		</g>
	</g>
	<g display="inline">
		<g>
			<g>
				<g>
					<path fill="#2D7641" d="M103.753,817.196c-0.001-4.701-0.161-9.356-0.778-14.021c-0.125-0.944-1.626-0.957-1.5,0
						c0.617,4.665,0.777,9.32,0.778,14.021C102.253,818.164,103.753,818.164,103.753,817.196L103.753,817.196z"/>
				</g>
			</g>
			<g>
				<g>
					<path fill="#2D7641" d="M106.864,815.794c0.059-2.82,0.78-5.511,1.529-8.213c0.259-0.934-1.188-1.329-1.446-0.398
						c-0.785,2.832-1.521,5.657-1.583,8.611C105.344,816.762,106.844,816.76,106.864,815.794L106.864,815.794z"/>
				</g>
			</g>
			<g>
				<g>
					<path fill="#2D7641" d="M98.204,819.621c-1.267-2.232-2.888-4.049-4.784-5.76c-0.716-0.646-1.78,0.411-1.061,1.061
						c1.804,1.628,3.343,3.33,4.55,5.457C97.386,821.22,98.683,820.464,98.204,819.621L98.204,819.621z"/>
				</g>
			</g>
		</g>
		<g>
			<g>
				<g>
					<path fill="#2D7641" d="M141.898,770.276c1.7,0.001,3.542,0.038,4.916,1.182c0.738,0.614,1.805-0.441,1.061-1.061
						c-1.714-1.428-3.825-1.619-5.977-1.621C140.931,768.775,140.931,770.275,141.898,770.276L141.898,770.276z"/>
				</g>
			</g>
			<g>
				<g>
					<path fill="#2D7641" d="M144.632,756.152c3.368,2.215,4.53,7.052,5.101,10.768c0.146,0.954,1.592,0.547,1.446-0.398
						c-0.637-4.146-2.062-9.213-5.79-11.664C144.579,754.324,143.828,755.624,144.632,756.152L144.632,756.152z"/>
				</g>
			</g>
			<g>
				<g>
					<path fill="#2D7641" d="M155.095,765.319c-0.001-3.793,0.126-7.709-0.804-11.416c-0.235-0.938-1.682-0.54-1.446,0.398
						c0.896,3.571,0.75,7.363,0.75,11.018C153.595,766.287,155.095,766.287,155.095,765.319L155.095,765.319z"/>
				</g>
			</g>
		</g>
		<g>
			<g>
				<g>
					<path fill="#2D7641" d="M45.49,776.734c0.768,3.818,2.344,7.399,3.112,11.218c0.19,0.948,1.636,0.546,1.446-0.398
						c-0.767-3.818-2.344-7.399-3.112-11.218C46.746,775.388,45.3,775.79,45.49,776.734L45.49,776.734z"/>
				</g>
			</g>
			<g>
				<g>
					<path fill="#2D7641" d="M52.409,787.753c0.057-5.618,0.721-11.206,0.778-16.825c0.01-0.968-1.49-0.967-1.5,0
						c-0.057,5.619-0.721,11.207-0.778,16.825C50.899,788.721,52.399,788.72,52.409,787.753L52.409,787.753z"/>
				</g>
			</g>
			<g>
				<g>
					<path fill="#2D7641" d="M54.771,788.503c2.481-0.078,3.273-2.77,3.834-4.758c0.263-0.933-1.184-1.328-1.446-0.398
						c-0.333,1.181-0.796,3.605-2.388,3.656C53.806,787.033,53.803,788.533,54.771,788.503L54.771,788.503z"/>
				</g>
			</g>
		</g>
		<g>
			<g>
				<g>
					<path fill="#2D7641" d="M68.47,675.591c2.872,2.217,5.083,5.071,6.732,8.288c0.441,0.86,1.735,0.102,1.295-0.758
						c-1.775-3.463-4.186-6.445-7.27-8.825C68.461,673.705,67.716,675.009,68.47,675.591L68.47,675.591z"/>
				</g>
			</g>
			<g>
				<g>
					<path fill="#2D7641" d="M79.971,681.168c-0.036-2.655-0.513-5.231-1.658-7.64c-0.415-0.873-1.708-0.111-1.295,0.758
						c1.028,2.162,1.421,4.501,1.453,6.882C78.483,682.135,79.983,682.136,79.971,681.168L79.971,681.168z"/>
				</g>
			</g>
			<g>
				<g>
					<path fill="#2D7641" d="M81.942,683.621c0.97-1.938,1.926-3.89,3.112-5.705c0.531-0.813-0.769-1.563-1.295-0.758
						c-1.187,1.816-2.143,3.769-3.112,5.705C80.216,683.726,81.509,684.486,81.942,683.621L81.942,683.621z"/>
				</g>
			</g>
		</g>
	</g>
	<g display="inline">
		<g>
			<g>
				<g>
					<path fill="#6DBF81" d="M1120.758,759.812c-0.001-4.701-0.161-9.356-0.778-14.021c-0.125-0.944-1.627-0.957-1.5,0
						c0.617,4.665,0.777,9.32,0.778,14.021C1119.258,760.779,1120.758,760.779,1120.758,759.812L1120.758,759.812z"/>
				</g>
			</g>
			<g>
				<g>
					<path fill="#6DBF81" d="M1123.869,758.409c0.059-2.82,0.78-5.511,1.529-8.213c0.258-0.934-1.189-1.329-1.447-0.398
						c-0.784,2.832-1.521,5.657-1.582,8.611C1122.349,759.377,1123.85,759.375,1123.869,758.409L1123.869,758.409z"/>
				</g>
			</g>
			<g>
				<g>
					<path fill="#6DBF81" d="M1115.209,762.236c-1.267-2.232-2.888-4.049-4.784-5.76c-0.716-0.646-1.78,0.411-1.061,1.061
						c1.805,1.628,3.343,3.33,4.55,5.457C1114.392,763.835,1115.688,763.079,1115.209,762.236L1115.209,762.236z"/>
				</g>
			</g>
		</g>
		<g>
			<g>
				<g>
					<path fill="#6DBF81" d="M1215.389,656.887c1.7,0.001,3.543,0.038,4.916,1.182c0.737,0.614,1.805-0.441,1.061-1.061
						c-1.715-1.428-3.825-1.619-5.977-1.621C1214.422,655.386,1214.422,656.886,1215.389,656.887L1215.389,656.887z"/>
				</g>
			</g>
			<g>
				<g>
					<path fill="#6DBF81" d="M1218.122,642.763c3.368,2.215,4.53,7.052,5.101,10.768c0.146,0.954,1.592,0.547,1.447-0.398
						c-0.638-4.146-2.062-9.213-5.79-11.664C1218.068,640.935,1217.318,642.234,1218.122,642.763L1218.122,642.763z"/>
				</g>
			</g>
			<g>
				<g>
					<path fill="#6DBF81" d="M1228.585,651.93c-0.001-3.793,0.126-7.709-0.804-11.416c-0.236-0.938-1.683-0.54-1.447,0.398
						c0.896,3.57,0.75,7.363,0.751,11.018C1227.085,652.896,1228.585,652.896,1228.585,651.93L1228.585,651.93z"/>
				</g>
			</g>
		</g>
		<g>
			<g>
				<g>
					<path fill="#6DBF81" d="M1118.979,663.345c0.769,3.818,2.345,7.399,3.112,11.218c0.191,0.948,1.637,0.546,1.447-0.398
						c-0.768-3.818-2.344-7.399-3.112-11.218C1120.235,661.998,1118.79,662.4,1118.979,663.345L1118.979,663.345z"/>
				</g>
			</g>
			<g>
				<g>
					<path fill="#6DBF81" d="M1125.899,674.363c0.057-5.619,0.722-11.207,0.778-16.825c0.01-0.968-1.49-0.967-1.5,0
						c-0.057,5.618-0.722,11.206-0.778,16.825C1124.39,675.331,1125.89,675.33,1125.899,674.363L1125.899,674.363z"/>
				</g>
			</g>
			<g>
				<g>
					<path fill="#6DBF81" d="M1128.262,675.113c2.48-0.078,3.272-2.77,3.834-4.758c0.263-0.933-1.185-1.328-1.447-0.398
						c-0.333,1.181-0.795,3.605-2.387,3.656C1127.297,673.644,1127.294,675.144,1128.262,675.113L1128.262,675.113z"/>
				</g>
			</g>
		</g>
		<g>
			<g>
				<g>
					<path fill="#6DBF81" d="M1199.451,601.206c2.872,2.217,5.083,5.071,6.732,8.288c0.441,0.86,1.735,0.102,1.295-0.758
						c-1.775-3.463-4.186-6.445-7.27-8.825C1199.443,599.32,1198.697,600.624,1199.451,601.206L1199.451,601.206z"/>
				</g>
			</g>
			<g>
				<g>
					<path fill="#6DBF81" d="M1210.952,606.783c-0.035-2.655-0.513-5.231-1.658-7.64c-0.415-0.873-1.708-0.111-1.295,0.758
						c1.028,2.162,1.421,4.501,1.453,6.882C1209.465,607.75,1210.965,607.751,1210.952,606.783L1210.952,606.783z"/>
				</g>
			</g>
			<g>
				<g>
					<path fill="#6DBF81" d="M1212.924,609.236c0.97-1.938,1.926-3.89,3.112-5.705c0.531-0.813-0.769-1.563-1.295-0.758
						c-1.187,1.816-2.143,3.769-3.112,5.705C1211.197,609.341,1212.491,610.102,1212.924,609.236L1212.924,609.236z"/>
				</g>
			</g>
		</g>
	</g>
	<g display="inline">
		<g>
			<g>
				<g>
					<path fill="#2D7641" d="M336.288,731.894c1.61,4.493,2.265,9.054,2.307,13.82c0.008,0.967,1.508,0.968,1.5,0
						c-0.043-4.896-0.705-9.599-2.361-14.219C337.41,730.592,335.96,730.98,336.288,731.894L336.288,731.894z"/>
				</g>
			</g>
			<g>
				<g>
					<path fill="#2D7641" d="M330.842,740.306c0.704,2.535,1.355,5.437,3.304,7.341c0.692,0.676,1.753-0.384,1.061-1.061
						c-1.749-1.709-2.287-4.404-2.918-6.679C332.03,738.977,330.583,739.372,330.842,740.306L330.842,740.306z"/>
				</g>
			</g>
			<g>
				<g>
					<path fill="#2D7641" d="M343.104,747.495c0.888-1.762,0.677-3.862,1.557-5.608c0.434-0.861-0.86-1.621-1.295-0.758
						c-0.888,1.762-0.677,3.862-1.557,5.608C341.375,747.6,342.668,748.358,343.104,747.495L343.104,747.495z"/>
				</g>
			</g>
		</g>
		<g>
			<g>
				<g>
					<path fill="#2D7641" d="M281.466,629.721c2.208,2.089,3.126,5.187,3.698,8.082c0.187,0.948,1.633,0.546,1.446-0.398
						c-0.62-3.141-1.694-6.482-4.083-8.744C281.824,627.996,280.762,629.055,281.466,629.721L281.466,629.721z"/>
				</g>
			</g>
			<g>
				<g>
					<path fill="#2D7641" d="M290.423,639.384c1.949-3.626,3.319-7.545,4.744-11.396c0.336-0.909-1.114-1.298-1.446-0.398
						c-1.381,3.732-2.704,7.524-4.592,11.037C288.67,639.479,289.965,640.235,290.423,639.384L290.423,639.384z"/>
				</g>
			</g>
			<g>
				<g>
					<path fill="#2D7641" d="M288.97,633.396c0.001-4.163,0.047-8.304,0.751-12.419c0.162-0.945-1.283-1.351-1.446-0.398
						c-0.728,4.248-0.804,8.518-0.805,12.817C287.469,634.364,288.969,634.363,288.97,633.396L288.97,633.396z"/>
				</g>
			</g>
		</g>
		<g>
			<g>
				<g>
					<path fill="#2D7641" d="M199.159,702.745c3.352,1.591,5.36,4.579,6.655,7.964c0.342,0.895,1.792,0.506,1.446-0.398
						c-1.429-3.733-3.637-7.102-7.345-8.86C199.047,701.038,198.285,702.331,199.159,702.745L199.159,702.745z"/>
				</g>
			</g>
			<g>
				<g>
					<path fill="#2D7641" d="M211.928,709.308c1.483-4.157,2.303-8.402,2.361-12.817c0.013-0.968-1.487-0.967-1.5,0
						c-0.057,4.288-0.869,8.387-2.307,12.419C210.156,709.822,211.605,710.212,211.928,709.308L211.928,709.308z"/>
				</g>
			</g>
			<g>
				<g>
					<path fill="#2D7641" d="M207.371,696.689c0.704,4.115,0.749,8.256,0.75,12.419c0,0.968,1.5,0.968,1.5,0
						c-0.001-4.3-0.078-8.569-0.804-12.817C208.654,695.339,207.209,695.744,207.371,696.689L207.371,696.689z"/>
				</g>
			</g>
		</g>
		<g>
			<g>
				<g>
					<path fill="#2D7641" d="M197.485,624.842c-1.622-2.432-3.282-4.803-5.714-6.491c-0.797-0.554-1.545,0.748-0.757,1.295
						c2.208,1.533,3.706,3.749,5.176,5.954C196.724,626.399,198.024,625.649,197.485,624.842L197.485,624.842z"/>
				</g>
			</g>
			<g>
				<g>
					<path fill="#2D7641" d="M203.034,624.443c0.041-2.649,0.699-5.085,1.529-7.58c0.306-0.92-1.143-1.312-1.446-0.398
						c-0.872,2.62-1.54,5.201-1.583,7.979C201.519,625.411,203.019,625.41,203.034,624.443L203.034,624.443z"/>
				</g>
			</g>
			<g>
				<g>
					<path fill="#2D7641" d="M198.264,619.396c-1.412-2.926-2.249-6.017-3.036-9.155c-0.235-0.938-1.682-0.54-1.446,0.398
						c0.818,3.268,1.718,6.471,3.187,9.515C197.389,621.025,198.682,620.264,198.264,619.396L198.264,619.396z"/>
				</g>
			</g>
		</g>
	</g>
</g>
<g id="tree" display="none">
	<g display="inline">
		<g>
			<g>
				<g>
					<path fill="#409B52" d="M1350.716,28.306c-0.857,0.144-1.667,0.172-2.534,0.145c-0.449-0.014,0.614,0.282,0.709,0.619
						c-0.174-0.622,0.75-2.956,1.104-3.931c1.216-3.361,3.036-6.473,4.218-9.851c-2.893,0-5.785,0-8.678,0
						c0.796,3.62,2.718,6.91,4.418,10.166c0.763,1.459,1.429,2.884,1.845,4.479c0.098,0.377-0.111,0.308,0.259-0.125
						c-0.304,0.355-1.71,0.494-2.019,0.561c-5.669,1.238-3.265,9.914,2.393,8.679c5.974-1.304,9.129-5.431,8.045-11.507
						c-0.939-5.269-5.114-9.43-6.263-14.645c-1.022-4.648-7.305-3.924-8.678,0c-1.864,5.325-4.959,9.991-5.57,15.72
						c-0.839,7.866,7.237,9.36,13.145,8.37C1358.822,36.027,1356.392,27.355,1350.716,28.306L1350.716,28.306z"/>
				</g>
			</g>
			<g>
				<g>
					<path fill="#5D330E" d="M1349.428,31.96c-0.001,5.972-0.067,11.923-0.68,17.868c-0.148,1.443,2.103,1.429,2.25,0
						c0.612-5.945,0.679-11.896,0.68-17.868C1351.678,30.509,1349.428,30.509,1349.428,31.96L1349.428,31.96z"/>
				</g>
			</g>
			<g>
				<g>
					<path fill="#5D330E" d="M1351.638,32.69c-0.517-3.658-3.6-6.138-6.901-7.314c-1.37-0.488-1.954,1.686-0.598,2.17
						c2.63,0.938,4.922,2.861,5.329,5.742C1349.67,34.72,1351.838,34.109,1351.638,32.69L1351.638,32.69z"/>
				</g>
			</g>
			<g>
				<g>
					<path fill="#5D330E" d="M1352.018,33.333c0.066-1.932,1.305-3.506,2.729-4.702c1.112-0.934-0.488-2.517-1.592-1.591
						c-1.893,1.589-3.302,3.771-3.388,6.292C1349.718,34.785,1351.968,34.78,1352.018,33.333L1352.018,33.333z"/>
				</g>
			</g>
			<g>
				<g>
					<path fill="#5D330E" d="M1351.678,29.554c-0.102-3.245-1.521-6.431-0.72-9.666c0.349-1.408-1.821-2.006-2.17-0.598
						c-0.873,3.53,0.53,6.747,0.64,10.264C1349.473,31.001,1351.723,31.005,1351.678,29.554L1351.678,29.554z"/>
				</g>
			</g>
		</g>
		<g>
			<g>
				<g>
					<path fill="#409B52" d="M1398.797,15.094c-0.857,0.144-1.667,0.172-2.534,0.145c-0.449-0.014,0.614,0.282,0.709,0.62
						c-0.174-0.622,0.751-2.956,1.104-3.931c1.216-3.361,3.036-6.473,4.218-9.851c-2.893,0-5.785,0-8.678,0
						c0.797,3.62,2.718,6.91,4.419,10.166c0.762,1.459,1.428,2.884,1.844,4.479c0.099,0.377-0.11,0.308,0.259-0.125
						c-0.303,0.355-1.71,0.494-2.019,0.561c-5.669,1.237-3.265,9.914,2.393,8.679c5.974-1.304,9.13-5.431,8.046-11.507
						c-0.939-5.269-5.115-9.43-6.264-14.645c-1.022-4.648-7.305-3.924-8.678,0c-1.864,5.325-4.959,9.991-5.57,15.72
						c-0.839,7.866,7.236,9.36,13.145,8.37C1406.904,22.815,1404.473,14.143,1398.797,15.094L1398.797,15.094z"/>
				</g>
			</g>
			<g>
				<g>
					<path fill="#5D330E" d="M1397.51,18.748c-0.001,5.972-0.067,11.923-0.681,17.868c-0.148,1.443,2.103,1.429,2.25,0
						c0.613-5.945,0.68-11.896,0.681-17.868C1399.76,17.297,1397.51,17.297,1397.51,18.748L1397.51,18.748z"/>
				</g>
			</g>
			<g>
				<g>
					<path fill="#5D330E" d="M1399.72,19.479c-0.519-3.658-3.601-6.138-6.902-7.315c-1.37-0.488-1.954,1.686-0.598,2.17
						c2.631,0.938,4.922,2.862,5.33,5.743C1397.753,21.509,1399.92,20.898,1399.72,19.479L1399.72,19.479z"/>
				</g>
			</g>
			<g>
				<g>
					<path fill="#5D330E" d="M1400.099,20.121c0.066-1.932,1.305-3.506,2.729-4.702c1.112-0.934-0.488-2.517-1.592-1.591
						c-1.893,1.589-3.301,3.771-3.388,6.292C1397.799,21.573,1400.049,21.568,1400.099,20.121L1400.099,20.121z"/>
				</g>
			</g>
			<g>
				<g>
					<path fill="#5D330E" d="M1399.76,16.342c-0.102-3.245-1.521-6.431-0.721-9.666c0.349-1.408-1.821-2.006-2.17-0.598
						c-0.873,3.53,0.53,6.747,0.641,10.264C1397.555,17.789,1399.805,17.793,1399.76,16.342L1399.76,16.342z"/>
				</g>
			</g>
		</g>
		<g>
			<g>
				<g>
					<path fill="#409B52" d="M1460.663,51.722c-0.857,0.144-1.667,0.172-2.534,0.145c-0.449-0.014,0.613,0.282,0.708,0.619
						c-0.174-0.622,0.751-2.955,1.104-3.931c1.216-3.361,3.036-6.474,4.219-9.852c-2.893,0-5.785,0-8.678,0
						c0.795,3.62,2.717,6.91,4.417,10.166c0.762,1.46,1.429,2.884,1.844,4.479c0.099,0.377-0.111,0.308,0.259-0.125
						c-0.303,0.355-1.711,0.494-2.02,0.561c-5.67,1.237-3.265,9.913,2.393,8.679c5.974-1.304,9.131-5.431,8.047-11.507
						c-0.939-5.268-5.115-9.429-6.262-14.645c-1.021-4.65-7.305-3.923-8.678,0c-1.865,5.325-4.961,9.991-5.571,15.72
						c-0.839,7.866,7.237,9.359,13.145,8.369C1468.77,59.443,1466.339,50.771,1460.663,51.722L1460.663,51.722z"/>
				</g>
			</g>
			<g>
				<g>
					<path fill="#5D330E" d="M1459.375,55.376c-0.001,5.972-0.067,11.922-0.679,17.868c-0.148,1.443,2.103,1.429,2.25,0
						c0.611-5.946,0.678-11.896,0.679-17.868C1461.625,53.925,1459.375,53.925,1459.375,55.376L1459.375,55.376z"/>
				</g>
			</g>
			<g>
				<g>
					<path fill="#5D330E" d="M1461.585,56.107c-0.519-3.657-3.598-6.138-6.9-7.314c-1.37-0.488-1.954,1.687-0.598,2.17
						c2.631,0.937,4.92,2.862,5.328,5.742C1459.618,58.137,1461.786,57.526,1461.585,56.107L1461.585,56.107z"/>
				</g>
			</g>
			<g>
				<g>
					<path fill="#5D330E" d="M1461.963,56.749c0.066-1.932,1.306-3.507,2.731-4.702c1.112-0.933-0.487-2.516-1.592-1.591
						c-1.894,1.588-3.304,3.771-3.39,6.292C1459.663,58.201,1461.913,58.196,1461.963,56.749L1461.963,56.749z"/>
				</g>
			</g>
			<g>
				<g>
					<path fill="#5D330E" d="M1461.625,52.97c-0.102-3.245-1.52-6.431-0.719-9.666c0.349-1.408-1.821-2.006-2.17-0.598
						c-0.873,3.53,0.529,6.748,0.639,10.264C1459.42,54.417,1461.67,54.421,1461.625,52.97L1461.625,52.97z"/>
				</g>
			</g>
		</g>
		<g>
			<g>
				<g>
					<path fill="#409B52" d="M1499.487,86.328c-0.857,0.144-1.667,0.172-2.534,0.145c-0.449-0.014,0.613,0.282,0.708,0.619
						c-0.174-0.622,0.751-2.955,1.104-3.931c1.217-3.361,3.036-6.474,4.219-9.852c-2.893,0-5.785,0-8.678,0
						c0.796,3.62,2.718,6.91,4.418,10.166c0.763,1.459,1.429,2.884,1.844,4.479c0.099,0.377-0.111,0.308,0.259-0.125
						c-0.303,0.355-1.71,0.494-2.019,0.561c-5.669,1.237-3.265,9.914,2.393,8.679c5.974-1.304,9.13-5.431,8.046-11.507
						c-0.939-5.269-5.115-9.43-6.263-14.645c-1.022-4.649-7.305-3.924-8.678,0c-1.864,5.325-4.96,9.991-5.571,15.72
						c-0.838,7.866,7.238,9.359,13.146,8.369C1507.594,94.048,1505.163,85.376,1499.487,86.328L1499.487,86.328z"/>
				</g>
			</g>
			<g>
				<g>
					<path fill="#5D330E" d="M1498.199,89.981c-0.001,5.972-0.067,11.923-0.68,17.868c-0.148,1.443,2.103,1.429,2.25,0
						c0.612-5.945,0.679-11.896,0.68-17.868C1500.449,88.53,1498.199,88.53,1498.199,89.981L1498.199,89.981z"/>
				</g>
			</g>
			<g>
				<g>
					<path fill="#5D330E" d="M1500.409,90.713c-0.517-3.658-3.599-6.138-6.901-7.314c-1.37-0.488-1.955,1.687-0.598,2.17
						c2.631,0.937,4.922,2.861,5.329,5.742C1498.441,92.743,1500.609,92.131,1500.409,90.713L1500.409,90.713z"/>
				</g>
			</g>
			<g>
				<g>
					<path fill="#5D330E" d="M1500.789,91.354c0.066-1.932,1.305-3.507,2.729-4.702c1.112-0.934-0.487-2.517-1.592-1.591
						c-1.894,1.588-3.302,3.771-3.388,6.292C1498.489,92.806,1500.739,92.801,1500.789,91.354L1500.789,91.354z"/>
				</g>
			</g>
			<g>
				<g>
					<path fill="#5D330E" d="M1500.449,87.576c-0.102-3.246-1.521-6.432-0.72-9.667c0.349-1.408-1.821-2.006-2.17-0.598
						c-0.873,3.53,0.53,6.748,0.64,10.265C1498.244,89.023,1500.494,89.028,1500.449,87.576L1500.449,87.576z"/>
				</g>
			</g>
		</g>
		<g>
			<g>
				<g>
					<path fill="#409B52" d="M1475.743,127.152c-0.857,0.144-1.667,0.172-2.534,0.145c-0.449-0.014,0.614,0.282,0.709,0.62
						c-0.174-0.622,0.751-2.956,1.104-3.931c1.216-3.361,3.036-6.474,4.218-9.852c-2.893,0-5.785,0-8.678,0
						c0.796,3.621,2.718,6.91,4.418,10.166c0.763,1.459,1.429,2.884,1.845,4.479c0.098,0.377-0.111,0.308,0.259-0.125
						c-0.304,0.355-1.711,0.494-2.02,0.562c-5.669,1.238-3.265,9.914,2.393,8.679c5.974-1.304,9.13-5.431,8.047-11.507
						c-0.94-5.269-5.116-9.43-6.264-14.646c-1.021-4.648-7.305-3.924-8.678,0c-1.863,5.326-4.959,9.991-5.57,15.721
						c-0.84,7.866,7.236,9.359,13.144,8.369C1483.85,134.873,1481.419,126.201,1475.743,127.152L1475.743,127.152z"/>
				</g>
			</g>
			<g>
				<g>
					<path fill="#5D330E" d="M1474.457,130.806c-0.001,5.972-0.067,11.923-0.681,17.868c-0.148,1.443,2.103,1.429,2.25,0
						c0.613-5.945,0.68-11.896,0.681-17.868C1476.707,129.354,1474.457,129.354,1474.457,130.806L1474.457,130.806z"/>
				</g>
			</g>
			<g>
				<g>
					<path fill="#5D330E" d="M1476.667,131.538c-0.52-3.657-3.6-6.138-6.902-7.314c-1.37-0.488-1.954,1.687-0.598,2.17
						c2.631,0.937,4.922,2.862,5.33,5.742C1474.7,133.568,1476.868,132.957,1476.667,131.538L1476.667,131.538z"/>
				</g>
			</g>
			<g>
				<g>
					<path fill="#5D330E" d="M1477.045,132.18c0.066-1.932,1.305-3.506,2.729-4.702c1.112-0.934-0.488-2.517-1.592-1.591
						c-1.893,1.589-3.302,3.771-3.388,6.292C1474.745,133.631,1476.995,133.626,1477.045,132.18L1477.045,132.18z"/>
				</g>
			</g>
			<g>
				<g>
					<path fill="#5D330E" d="M1476.707,128.4c-0.102-3.246-1.521-6.432-0.721-9.667c0.348-1.409-1.822-2.006-2.17-0.598
						c-0.872,3.53,0.531,6.748,0.641,10.265C1474.502,129.848,1476.752,129.852,1476.707,128.4L1476.707,128.4z"/>
				</g>
			</g>
		</g>
		<g>
			<g>
				<g>
					<path fill="#409B52" d="M1367.57,127.152c-0.857,0.144-1.667,0.172-2.534,0.145c-0.449-0.014,0.614,0.282,0.708,0.619
						c-0.174-0.622,0.751-2.955,1.104-3.931c1.216-3.361,3.036-6.474,4.219-9.852c-2.893,0-5.785,0-8.678,0
						c0.796,3.62,2.717,6.91,4.418,10.166c0.762,1.46,1.428,2.884,1.844,4.48c0.099,0.376-0.111,0.308,0.259-0.125
						c-0.304,0.355-1.71,0.494-2.02,0.562c-5.669,1.238-3.265,9.914,2.393,8.679c5.974-1.304,9.131-5.431,8.047-11.507
						c-0.939-5.269-5.115-9.43-6.263-14.646c-1.021-4.649-7.304-3.923-8.678,0c-1.865,5.325-4.96,9.991-5.571,15.72
						c-0.839,7.866,7.237,9.359,13.145,8.369C1375.678,134.873,1373.246,126.201,1367.57,127.152L1367.57,127.152z"/>
				</g>
			</g>
			<g>
				<g>
					<path fill="#5D330E" d="M1366.283,130.806c-0.001,5.972-0.067,11.923-0.68,17.868c-0.148,1.443,2.103,1.429,2.25,0
						c0.612-5.945,0.679-11.896,0.68-17.868C1368.533,129.354,1366.283,129.354,1366.283,130.806L1366.283,130.806z"/>
				</g>
			</g>
			<g>
				<g>
					<path fill="#5D330E" d="M1368.493,131.537c-0.519-3.657-3.6-6.137-6.901-7.314c-1.37-0.488-1.954,1.686-0.598,2.17
						c2.631,0.938,4.921,2.862,5.329,5.742C1366.526,133.567,1368.694,132.956,1368.493,131.537L1368.493,131.537z"/>
				</g>
			</g>
			<g>
				<g>
					<path fill="#5D330E" d="M1368.871,132.179c0.066-1.932,1.306-3.507,2.73-4.702c1.112-0.934-0.488-2.517-1.592-1.591
						c-1.894,1.588-3.303,3.771-3.389,6.292C1366.571,133.63,1368.821,133.625,1368.871,132.179L1368.871,132.179z"/>
				</g>
			</g>
			<g>
				<g>
					<path fill="#5D330E" d="M1368.533,128.4c-0.102-3.246-1.521-6.432-0.72-9.667c0.349-1.408-1.821-2.006-2.17-0.598
						c-0.873,3.53,0.53,6.748,0.64,10.265C1366.328,129.848,1368.578,129.852,1368.533,128.4L1368.533,128.4z"/>
				</g>
			</g>
		</g>
	</g>
	<g display="inline">
		<g>
			<g>
				<path fill="#409B52" d="M343.237,586.475c-5.234,0.887-4.286-0.6-2.783-4.988c1.572-4.595,4.093-8.807,5.692-13.394
					c-2.893,0-5.786,0-8.679,0c0.967,4.42,3.281,8.437,5.364,12.408c1.01,1.925,1.948,3.838,2.575,5.924
					c0.706,2.348-1.005,2.267-3.043,2.709c-5.671,1.229-3.266,9.905,2.393,8.678c6.84-1.483,10.547-5.848,9.537-12.874
					c-0.996-6.925-6.656-12.423-8.146-19.237c-1.017-4.647-7.31-3.925-8.679,0c-2.256,6.472-6.47,12.402-7.083,19.386
					c-0.829,9.439,7.677,11.35,15.246,10.066C351.343,594.185,348.912,585.513,343.237,586.475L343.237,586.475z"/>
			</g>
		</g>
		<g>
			<g>
				<path fill="#5D330E" d="M341.558,589.93c-0.001,7.697-0.087,15.368-0.877,23.032c-0.149,1.442,2.103,1.429,2.25,0
					c0.79-7.664,0.875-15.335,0.877-23.032C343.809,588.479,341.559,588.479,341.558,589.93L341.558,589.93z"/>
			</g>
		</g>
		<g>
			<g>
				<path fill="#5D330E" d="M343.768,590.958c-0.653-4.603-4.511-7.718-8.669-9.201c-1.371-0.488-1.955,1.687-0.599,2.17
					c3.488,1.243,6.555,3.804,7.098,7.629C341.802,592.987,343.969,592.376,343.768,590.958L343.768,590.958z"/>
			</g>
		</g>
		<g>
			<g>
				<path fill="#5D330E" d="M344.244,591.699c0.088-2.577,1.708-4.691,3.613-6.29c1.113-0.935-0.487-2.518-1.591-1.592
					c-2.374,1.992-4.164,4.716-4.272,7.882C341.944,593.15,344.194,593.146,344.244,591.699L344.244,591.699z"/>
			</g>
		</g>
		<g>
			<g>
				<path fill="#5D330E" d="M343.808,586.828c-0.132-4.222-1.959-8.333-0.917-12.547c0.348-1.408-1.822-2.006-2.17-0.598
					c-1.115,4.511,0.696,8.647,0.837,13.145C341.604,588.275,343.854,588.28,343.808,586.828L343.808,586.828z"/>
			</g>
		</g>
	</g>
	<g display="inline">
		<g>
			<g>
				<path fill="#409B52" d="M1524.365,327.836c1.166-0.195-0.819-0.025-0.931-0.029c1.94,0.061,3.854,1.501,4.385,3.401
					c0.133,1.31,0.199,1.543,0.2,0.699c-0.186,1.188-0.193,1.357-0.022,0.506c0.163-0.742,0.43-1.463,0.688-2.176
					c0.69-1.906-0.646,1.418,0.178-0.47c0.322-0.739,0.664-1.469,1.001-2.201c0.763-1.659,1.526-3.33,2.131-5.053
					c-4.822,0-9.643,0-14.465,0c0.695,3.162,2.377,6.073,3.864,8.92c0.334,0.64,0.646,1.289,0.951,1.944
					c-0.663-1.425,0.027,0.366,0.094,0.619c-0.384-1.475,0.245-2.817,1.224-3.963c0.455-0.532,1.88-0.955,0.17-0.582
					c-3.994,0.872-6.277,5.447-5.238,9.226c1.127,4.098,5.235,6.109,9.227,5.238c6.943-1.515,10.299-7.086,9.082-13.907
					c-0.421-2.363-1.799-4.694-2.903-6.809c-0.462-0.886-0.928-1.769-1.372-2.664c-0.38-0.826-0.413-0.879-0.1-0.161
					c-0.241-0.601-0.396-1.22-0.533-1.849c-0.711-3.235-4.03-5.506-7.232-5.506c-3.511,0-6.117,2.325-7.232,5.506
					c-0.651,1.859,0.572-1.154-0.379,0.946c-0.496,1.096-1.006,2.186-1.486,3.29c-1.347,3.085-2.287,5.789-2.645,9.146
					c-0.301,2.815,1.039,6.394,3.282,8.158c3.729,2.934,7.551,2.988,12.052,2.234c4.036-0.676,6.237-5.594,5.238-9.226
					C1532.425,328.834,1528.394,327.161,1524.365,327.836L1524.365,327.836z"/>
			</g>
		</g>
		<g>
			<g>
				<path fill="#5D330E" d="M1523.043,334.53c-0.001,4.682-0.053,9.347-0.531,14.008c-0.297,2.886,4.207,2.857,4.5,0
					c0.479-4.661,0.53-9.326,0.531-14.008C1527.543,331.628,1523.043,331.628,1523.043,334.53L1523.043,334.53z"/>
			</g>
		</g>
		<g>
			<g>
				<path fill="#5D330E" d="M1527.463,334.74c-0.473-3.342-3.369-5.623-6.367-6.69c-1.155-0.412-2.46,0.455-2.768,1.571
					c-0.343,1.249,0.418,2.356,1.572,2.768c1.677,0.598,2.973,1.773,3.223,3.548c0.172,1.217,1.702,1.865,2.768,1.571
					C1527.186,337.151,1527.634,335.953,1527.463,334.74L1527.463,334.74z"/>
			</g>
		</g>
		<g>
			<g>
				<path fill="#5D330E" d="M1527.811,335.607c0.019-0.285,0.018-0.339-0.004-0.165c0.034-0.17,0.077-0.337,0.13-0.503
					c0.075-0.259,0.158-0.367,0.335-0.67c0.314-0.539,0.764-0.952,1.276-1.382c0.94-0.789,0.811-2.372,0-3.182
					c-0.923-0.924-2.243-0.788-3.182,0c-1.764,1.479-2.976,3.574-3.056,5.901c-0.042,1.227,1.056,2.25,2.25,2.25
					C1526.818,337.857,1527.769,336.833,1527.811,335.607L1527.811,335.607z"/>
			</g>
		</g>
		<g>
			<g>
				<path fill="#5D330E" d="M1527.543,332.643c-0.074-2.374-1.193-4.866-0.611-7.213c0.697-2.817-3.643-4.012-4.34-1.196
					c-0.726,2.931,0.36,5.507,0.451,8.41C1523.134,335.537,1527.634,335.546,1527.543,332.643L1527.543,332.643z"/>
			</g>
		</g>
	</g>
	<g display="inline">
		<g>
			<g>
				<path fill="#409B52" d="M249.646,554.384c-2.813,0.471-1.037-0.587-0.543,1.178c0.157,0.563,0.125-0.254,0.188-0.537
					c0.171-0.781,0.452-1.541,0.724-2.291c1.004-2.774,2.507-5.345,3.484-8.135c-2.893,0-5.786,0-8.679,0
					c0.671,3.053,2.293,5.835,3.727,8.581c0.601,1.151,1.116,2.256,1.444,3.512c-0.258-0.989,1.198-1.064-0.906-0.604
					c-5.669,1.237-3.265,9.913,2.393,8.678c5.379-1.174,8.159-5.04,7.191-10.466c-0.777-4.355-4.224-7.788-5.17-12.093
					c-1.022-4.649-7.305-3.923-8.679,0c-1.423,4.064-4.119,8.42-4.627,13.188c-0.752,7.058,6.513,8.562,11.847,7.667
					C257.753,562.104,255.322,553.433,249.646,554.384L249.646,554.384z"/>
			</g>
		</g>
		<g>
			<g>
				<path fill="#5D330E" d="M248.595,558.156c-0.001,4.931-0.056,9.845-0.561,14.754c-0.148,1.443,2.103,1.429,2.25,0
					c0.505-4.909,0.56-9.823,0.561-14.754C250.845,556.705,248.595,556.705,248.595,558.156L248.595,558.156z"/>
			</g>
		</g>
		<g>
			<g>
				<path fill="#5D330E" d="M250.805,558.708c-0.437-3.088-3.05-5.185-5.835-6.177c-1.37-0.488-1.955,1.687-0.598,2.17
					c2.114,0.753,3.936,2.294,4.263,4.604C248.837,560.737,251.005,560.126,250.805,558.708L250.805,558.708z"/>
			</g>
		</g>
		<g>
			<g>
				<path fill="#5D330E" d="M251.125,559.29c0.053-1.542,1.063-2.792,2.197-3.743c1.113-0.934-0.487-2.518-1.591-1.592
					c-1.604,1.346-2.783,3.202-2.856,5.335C248.825,560.742,251.075,560.737,251.125,559.29L251.125,559.29z"/>
			</g>
		</g>
		<g>
			<g>
				<path fill="#5D330E" d="M250.845,556.17c-0.083-2.656-1.255-5.285-0.601-7.93c0.348-1.408-1.821-2.006-2.17-0.598
					c-0.727,2.938,0.429,5.603,0.521,8.527C248.64,557.617,250.89,557.622,250.845,556.17L250.845,556.17z"/>
			</g>
		</g>
	</g>
	<g display="inline">
		<g>
			<g>
				<path fill="#409B52" d="M1483.831,257.333c-2.814,0.472-1.036-0.587-0.543,1.179c0.157,0.562,0.126-0.254,0.188-0.537
					c0.171-0.782,0.452-1.541,0.724-2.292c1.004-2.774,2.507-5.345,3.483-8.134c-2.893,0-5.785,0-8.678,0
					c0.671,3.053,2.293,5.835,3.727,8.582c0.602,1.151,1.116,2.255,1.443,3.511c-0.258-0.99,1.198-1.064-0.905-0.605
					c-5.669,1.237-3.265,9.914,2.393,8.679c5.38-1.174,8.159-5.041,7.191-10.466c-0.776-4.356-4.224-7.788-5.171-12.093
					c-1.021-4.649-7.305-3.924-8.678,0c-1.423,4.064-4.119,8.42-4.628,13.189c-0.753,7.057,6.513,8.561,11.846,7.667
					C1491.938,265.053,1489.507,256.381,1483.831,257.333L1483.831,257.333z"/>
			</g>
		</g>
		<g>
			<g>
				<path fill="#5D330E" d="M1482.781,261.105c-0.001,4.931-0.056,9.845-0.562,14.754c-0.148,1.443,2.103,1.429,2.25,0
					c0.506-4.909,0.561-9.823,0.562-14.754C1485.031,259.654,1482.781,259.654,1482.781,261.105L1482.781,261.105z"/>
			</g>
		</g>
		<g>
			<g>
				<path fill="#5D330E" d="M1484.991,261.657c-0.438-3.088-3.051-5.184-5.836-6.177c-1.37-0.488-1.954,1.686-0.598,2.17
					c2.113,0.753,3.937,2.294,4.264,4.604C1483.024,263.687,1485.192,263.076,1484.991,261.657L1484.991,261.657z"/>
			</g>
		</g>
		<g>
			<g>
				<path fill="#5D330E" d="M1485.311,262.239c0.053-1.542,1.062-2.792,2.196-3.744c1.112-0.934-0.488-2.517-1.592-1.591
					c-1.603,1.346-2.781,3.202-2.854,5.334C1483.011,263.691,1485.261,263.686,1485.311,262.239L1485.311,262.239z"/>
			</g>
		</g>
		<g>
			<g>
				<path fill="#5D330E" d="M1485.031,259.119c-0.083-2.656-1.256-5.285-0.602-7.93c0.349-1.408-1.821-2.006-2.17-0.598
					c-0.727,2.939,0.43,5.602,0.521,8.527C1482.826,260.566,1485.076,260.571,1485.031,259.119L1485.031,259.119z"/>
			</g>
		</g>
	</g>
	<g display="inline">
		<g>
			<g>
				<path fill="#409B52" d="M407.646,572.456c-2.813,0.471-1.037-0.587-0.543,1.178c0.157,0.563,0.125-0.254,0.188-0.537
					c0.171-0.781,0.452-1.541,0.724-2.291c1.004-2.774,2.507-5.345,3.484-8.135c-2.893,0-5.786,0-8.679,0
					c0.671,3.053,2.293,5.835,3.727,8.581c0.601,1.151,1.116,2.256,1.444,3.512c-0.258-0.989,1.198-1.064-0.906-0.604
					c-5.669,1.237-3.265,9.913,2.393,8.678c5.379-1.174,8.159-5.04,7.191-10.466c-0.777-4.355-4.224-7.788-5.17-12.093
					c-1.022-4.649-7.305-3.923-8.679,0c-1.423,4.064-4.119,8.42-4.627,13.188c-0.752,7.058,6.513,8.562,11.847,7.667
					C415.753,580.177,413.322,571.505,407.646,572.456L407.646,572.456z"/>
			</g>
		</g>
		<g>
			<g>
				<path fill="#5D330E" d="M406.595,576.229c-0.001,4.931-0.056,9.845-0.561,14.754c-0.148,1.443,2.103,1.429,2.25,0
					c0.505-4.909,0.56-9.823,0.561-14.754C408.845,574.777,406.595,574.777,406.595,576.229L406.595,576.229z"/>
			</g>
		</g>
		<g>
			<g>
				<path fill="#5D330E" d="M408.805,576.78c-0.437-3.088-3.05-5.185-5.835-6.177c-1.37-0.488-1.955,1.687-0.598,2.17
					c2.114,0.753,3.936,2.294,4.263,4.604C406.837,578.81,409.005,578.198,408.805,576.78L408.805,576.78z"/>
			</g>
		</g>
		<g>
			<g>
				<path fill="#5D330E" d="M409.125,577.362c0.053-1.542,1.063-2.792,2.197-3.743c1.113-0.934-0.487-2.518-1.591-1.592
					c-1.604,1.346-2.783,3.202-2.856,5.335C406.825,578.814,409.075,578.81,409.125,577.362L409.125,577.362z"/>
			</g>
		</g>
		<g>
			<g>
				<path fill="#5D330E" d="M408.845,574.242c-0.083-2.656-1.255-5.285-0.601-7.93c0.348-1.408-1.821-2.006-2.17-0.598
					c-0.727,2.938,0.429,5.603,0.521,8.527C406.64,575.689,408.89,575.694,408.845,574.242L408.845,574.242z"/>
			</g>
		</g>
	</g>
	<g display="inline">
		<g>
			<g>
				<path fill="#409B52" d="M1456.381,332.912c-2.813,0.472-1.037-0.587-0.543,1.179c0.157,0.562,0.125-0.254,0.188-0.537
					c0.171-0.782,0.452-1.541,0.724-2.292c1.004-2.774,2.507-5.345,3.483-8.134c-2.893,0-5.785,0-8.678,0
					c0.671,3.053,2.293,5.835,3.727,8.582c0.602,1.151,1.116,2.255,1.443,3.511c-0.258-0.99,1.198-1.064-0.905-0.605
					c-5.669,1.237-3.265,9.914,2.393,8.679c5.38-1.174,8.159-5.041,7.191-10.466c-0.776-4.356-4.224-7.788-5.171-12.093
					c-1.021-4.649-7.305-3.923-8.678,0c-1.424,4.064-4.12,8.42-4.628,13.189c-0.752,7.057,6.513,8.561,11.847,7.667
					C1464.488,340.632,1462.057,331.96,1456.381,332.912L1456.381,332.912z"/>
			</g>
		</g>
		<g>
			<g>
				<path fill="#5D330E" d="M1455.329,336.685c-0.001,4.931-0.056,9.845-0.561,14.754c-0.148,1.443,2.103,1.429,2.25,0
					c0.505-4.909,0.56-9.823,0.561-14.754C1457.579,335.233,1455.329,335.233,1455.329,336.685L1455.329,336.685z"/>
			</g>
		</g>
		<g>
			<g>
				<path fill="#5D330E" d="M1457.539,337.236c-0.438-3.088-3.05-5.184-5.835-6.177c-1.37-0.488-1.954,1.687-0.598,2.17
					c2.114,0.753,3.936,2.294,4.263,4.604C1455.572,339.266,1457.739,338.655,1457.539,337.236L1457.539,337.236z"/>
			</g>
		</g>
		<g>
			<g>
				<path fill="#5D330E" d="M1457.859,337.818c0.053-1.542,1.063-2.792,2.197-3.744c1.112-0.934-0.488-2.517-1.592-1.591
					c-1.604,1.345-2.782,3.202-2.855,5.334C1455.56,339.27,1457.81,339.265,1457.859,337.818L1457.859,337.818z"/>
			</g>
		</g>
		<g>
			<g>
				<path fill="#5D330E" d="M1457.579,334.698c-0.083-2.656-1.255-5.285-0.601-7.93c0.349-1.408-1.821-2.006-2.17-0.598
					c-0.727,2.938,0.429,5.602,0.521,8.527C1455.374,336.146,1457.625,336.15,1457.579,334.698L1457.579,334.698z"/>
			</g>
		</g>
	</g>
	<g display="inline">
		<g>
			<path fill="#409B52" d="M61.019,611.843c-29.174,5.619-8.334-25.292-4.167-37.936l0,0c2.778,15.454,26.396,37.936,2.778,42.153"
				/>
			<g>
				<path fill="#409B52" d="M59.823,607.504c-2.506,0.445-7.896,1.705-9.422-1.152c-1.163-2.177,0.661-6.663,1.332-8.753
					c2.492-7.765,6.822-14.789,9.459-22.495c-2.893,0-5.786,0-8.679,0c1.597,7.795,6.107,14.771,9.642,21.791
					c1.563,3.105,3.25,6.537,3.372,10.073c0.122,3.521-4.491,4.227-7.093,4.754c-5.687,1.15-3.273,9.825,2.393,8.678
					c10.046-2.033,15.547-8.798,12.839-19.031c-2.683-10.14-10.357-18.321-12.475-28.657c-0.955-4.663-7.34-3.911-8.679,0
					c-3.387,9.899-9.64,18.818-11.049,29.367c-0.576,4.312,0.16,9.063,3.71,11.964c4.785,3.91,11.379,3.147,17.042,2.14
					C67.923,615.166,65.497,606.494,59.823,607.504L59.823,607.504z"/>
			</g>
		</g>
		<g>
			<g>
				<path fill="#5D330E" d="M57.118,610.441c-0.001,12.205-0.113,24.381-1.391,36.531c-0.152,1.442,2.1,1.428,2.25,0
					c1.277-12.15,1.39-24.326,1.391-36.531C59.368,608.99,57.118,608.99,57.118,610.441L57.118,610.441z"/>
			</g>
		</g>
		<g>
			<g>
				<path fill="#5D330E" d="M59.328,612.247c-1.004-7.072-6.891-11.852-13.292-14.134c-1.37-0.488-1.954,1.687-0.598,2.17
					c5.728,2.042,10.826,6.266,11.72,12.562C57.361,614.276,59.529,613.665,59.328,612.247L59.328,612.247z"/>
			</g>
		</g>
		<g>
			<g>
				<path fill="#5D330E" d="M60.058,613.248c0.146-4.264,2.764-7.792,5.924-10.444c1.113-0.935-0.488-2.518-1.591-1.592
					c-3.629,3.047-6.417,7.185-6.583,12.036C57.758,614.699,60.008,614.695,60.058,613.248L60.058,613.248z"/>
			</g>
		</g>
		<g>
			<g>
				<path fill="#5D330E" d="M59.368,605.521c-0.212-6.774-3.106-13.304-1.431-20.076c0.349-1.408-1.821-2.006-2.17-0.598
					c-1.75,7.072,1.13,13.616,1.351,20.674C57.163,606.969,59.413,606.974,59.368,605.521L59.368,605.521z"/>
			</g>
		</g>
	</g>
	<g display="inline">
		<g>
			<path fill="#409B52" d="M616.534,654.585c-23.106,4.45-6.602-20.031-3.302-30.045l0,0c2.202,12.239,20.906,30.045,2.202,33.386"
				/>
			<g>
				<path fill="#409B52" d="M615.337,650.246c-1.471,0.256-5.442,1.214-6.37-0.41c-0.819-1.433,0.747-5.151,1.202-6.548
					c1.971-6.049,5.328-11.542,7.402-17.552c-2.893,0-5.786,0-8.679,0c1.247,5.902,4.516,11.224,7.251,16.527
					c1.282,2.486,2.408,4.979,2.999,7.724c0.604,2.808-2.92,3.185-4.905,3.6c-5.68,1.186-3.27,9.86,2.393,8.678
					c8.172-1.706,12.81-7.144,10.998-15.567c-1.799-8.356-8.287-14.97-10.057-23.354c-0.983-4.656-7.327-3.917-8.679,0
					c-2.739,7.938-7.746,15.104-8.796,23.59c-1.389,11.223,8.623,13.56,17.633,11.99C623.44,657.93,621.012,649.258,615.337,650.246
					L615.337,650.246z"/>
			</g>
		</g>
		<g>
			<g>
				<path fill="#5D330E" d="M613.208,653.476c-0.001,9.668-0.101,19.308-1.102,28.933c-0.15,1.442,2.102,1.428,2.25,0
					c1-9.625,1.1-19.265,1.102-28.933C615.458,652.024,613.208,652.024,613.208,653.476L613.208,653.476z"/>
			</g>
		</g>
		<g>
			<g>
				<path fill="#5D330E" d="M615.418,654.844c-0.807-5.683-5.551-9.526-10.691-11.358c-1.371-0.488-1.955,1.687-0.599,2.17
					c4.468,1.593,8.424,4.88,9.12,9.786C613.452,656.873,615.62,656.262,615.418,654.844L615.418,654.844z"/>
			</g>
		</g>
		<g>
			<g>
				<path fill="#5D330E" d="M616.006,655.698c0.114-3.315,2.169-6.048,4.624-8.107c1.113-0.935-0.488-2.518-1.591-1.592
					c-2.923,2.454-5.149,5.796-5.283,9.699C613.707,657.15,615.957,657.146,616.006,655.698L616.006,655.698z"/>
			</g>
		</g>
		<g>
			<g>
				<path fill="#5D330E" d="M615.458,649.578c-0.167-5.338-2.46-10.506-1.142-15.838c0.348-1.408-1.822-2.006-2.17-0.598
					c-1.392,5.63,0.886,10.819,1.062,16.436C613.254,651.025,615.504,651.03,615.458,649.578L615.458,649.578z"/>
			</g>
		</g>
	</g>
	<g display="inline">
		<g>
			<g>
				<path fill="#409B52" d="M581.301,665.268c-2.813,0.471-1.037-0.587-0.543,1.178c0.157,0.563,0.125-0.254,0.188-0.537
					c0.171-0.781,0.452-1.541,0.724-2.291c1.004-2.774,2.507-5.346,3.484-8.135c-2.893,0-5.786,0-8.679,0
					c0.671,3.053,2.293,5.835,3.727,8.581c0.601,1.151,1.116,2.256,1.444,3.512c-0.258-0.989,1.198-1.064-0.906-0.604
					c-5.669,1.237-3.265,9.913,2.393,8.678c5.379-1.174,8.159-5.041,7.191-10.466c-0.777-4.355-4.224-7.788-5.17-12.093
					c-1.022-4.649-7.305-3.923-8.679,0c-1.423,4.064-4.119,8.42-4.627,13.188c-0.752,7.058,6.513,8.562,11.847,7.667
					C589.408,672.988,586.977,664.316,581.301,665.268L581.301,665.268z"/>
			</g>
		</g>
		<g>
			<g>
				<path fill="#5D330E" d="M580.25,669.04c-0.001,4.931-0.056,9.845-0.561,14.754c-0.148,1.443,2.103,1.429,2.25,0
					c0.505-4.909,0.56-9.823,0.561-14.754C582.5,667.589,580.25,667.589,580.25,669.04L580.25,669.04z"/>
			</g>
		</g>
		<g>
			<g>
				<path fill="#5D330E" d="M582.459,669.592c-0.437-3.088-3.05-5.185-5.834-6.177c-1.371-0.488-1.955,1.687-0.599,2.17
					c2.114,0.753,3.937,2.294,4.263,4.604C580.492,671.621,582.66,671.01,582.459,669.592L582.459,669.592z"/>
			</g>
		</g>
		<g>
			<g>
				<path fill="#5D330E" d="M582.78,670.174c0.053-1.542,1.063-2.792,2.197-3.743c1.113-0.934-0.487-2.518-1.591-1.592
					c-1.604,1.346-2.783,3.202-2.856,5.335C580.48,671.625,582.73,671.621,582.78,670.174L582.78,670.174z"/>
			</g>
		</g>
		<g>
			<g>
				<path fill="#5D330E" d="M582.5,667.054c-0.083-2.656-1.255-5.285-0.601-7.93c0.348-1.408-1.821-2.006-2.17-0.598
					c-0.727,2.938,0.429,5.603,0.521,8.527C580.295,668.501,582.545,668.506,582.5,667.054L582.5,667.054z"/>
			</g>
		</g>
	</g>
</g>
<g id="sky-items">
	<g>
		<ellipse fill="#FFF35F" cx="180.926" cy="198.036" rx="33.202" ry="32.618"/>
		<g>
			<g>
				<path fill="#FFF35F" d="M219.453,169.221c9.503-3.703,18.221-8.81,26.701-14.433c4.813-3.19,0.311-10.989-4.542-7.771
					c-7.79,5.164-15.815,10.122-24.552,13.525C211.714,162.625,214.037,171.331,219.453,169.221L219.453,169.221z"/>
			</g>
		</g>
		<g>
			<g>
				<path fill="#FFF35F" d="M226.907,209.703c7.369,1.136,14.724,1.324,22.167,1.326c5.804,0.002,5.804-8.998,0-9
					c-6.603-0.002-13.233,0.004-19.774-1.005C223.624,200.149,221.186,208.821,226.907,209.703L226.907,209.703z"/>
			</g>
		</g>
		<g>
			<g>
				<path fill="#FFF35F" d="M201.623,240.825c6.03,6.028,12.11,11.984,18.64,17.474c4.411,3.708,10.812-2.625,6.364-6.364
					c-6.53-5.49-12.611-11.446-18.64-17.474C203.879,230.354,197.515,236.718,201.623,240.825L201.623,240.825z"/>
			</g>
		</g>
		<g>
			<g>
				<path fill="#FFF35F" d="M137.555,216.987c-6.863,6.618-15.333,10.941-23.553,15.606c-5.046,2.864-0.513,10.64,4.542,7.771
					c8.904-5.053,17.943-9.847,25.375-17.013C148.103,219.316,141.732,212.959,137.555,216.987L137.555,216.987z"/>
			</g>
		</g>
		<g>
			<g>
				<path fill="#FFF35F" d="M139.571,186.547c-12.051-0.002-24.197,0.08-36.082-2.17c-5.671-1.073-8.091,7.6-2.393,8.679
					c12.703,2.405,25.59,2.489,38.474,2.491C145.375,195.548,145.375,186.548,139.571,186.547L139.571,186.547z"/>
			</g>
		</g>
		<g>
			<g>
				<path fill="#FFF35F" d="M158.602,157.324c-5.572-8.073-13.031-14.472-20.509-20.716c-4.422-3.691-10.824,2.641-6.364,6.364
					c6.821,5.694,14.015,11.523,19.102,18.894C154.103,166.608,161.908,162.114,158.602,157.324L158.602,157.324z"/>
			</g>
		</g>
		<g>
			<g>
				<path fill="#FFF35F" d="M192.837,157.296c3.379-9.833,2.557-20.104,2.489-30.319c-0.038-5.802-9.038-5.805-9,0
					c0.062,9.423,0.95,18.855-2.168,27.927C182.267,160.408,190.962,162.751,192.837,157.296L192.837,157.296z"/>
			</g>
		</g>
		<g>
			<g>
				<path fill="#FFF35F" d="M166.523,239.974c1.125,8.501,1.163,17.066,1.165,25.627c0.001,5.804,9.001,5.804,9,0
					c-0.002-8.562-0.04-17.126-1.165-25.627C174.773,234.307,165.763,234.233,166.523,239.974L166.523,239.974z"/>
			</g>
		</g>
	</g>
	<g>
		<path fill="#FFFFFF" d="M986.145,187.34c-10.261,2.053-26.676-10.26-28.729-24.624c-2.053-47.196,51.299-20.52,61.56,4.104
			c8.208-63.611,100.547-38.988,61.56,4.104l0,0c71.82-24.623,32.832,88.236,2.053,34.885c6.155,41.039-47.197,53.352-63.612,16.416
			c-8.208,38.986-75.923,34.883-63.612-6.156c-26.676,22.571-80.025,18.467-77.973-26.676c4.104-32.833,53.35-61.56,80.025-38.988"
			/>
	</g>
	<g>
		<path fill="#FFFFFF" d="M603.679,546.423c-15.975-8.408,7.567-27.746,21.86-3.363c-6.726-21.86,29.427-21.02,22.701,3.363l0,0
			c13.452-23.541,43.721,10.93,23.542,12.611l0,0c15.134,7.567,4.204,30.269-12.612,16.816l0,0v-0.842
			c0.841,17.656-22.7,15.976-28.586,3.363c-8.408,14.293-31.109,21.02-31.109-1.681c-18.497,24.382-40.357-5.045-18.497-12.612
			c-27.745,5.045-4.204-43.721,17.657-14.293"/>
	</g>
	<g>
		<path fill="#FFFFFF" d="M1145.214,287.541c-15.975-8.407,7.567-27.745,21.86-3.363c-6.726-21.859,29.427-21.019,22.701,3.363l0,0
			c13.452-23.541,43.721,10.931,23.542,12.612l0,0c15.134,7.567,4.204,30.269-12.612,16.815l0,0v-0.841
			c0.841,17.656-22.7,15.976-28.586,3.363c-8.408,14.293-31.109,21.02-31.109-1.681c-18.497,24.382-40.357-5.045-18.497-12.613
			c-27.745,5.045-4.204-43.721,17.657-14.293"/>
	</g>
</g>
<g id="ground-items" display="none">
	<g display="inline">
		<g>
			<g>
				<g>
					<path fill="#214E25" d="M998.789,708.52c-4.318-19.436-7.397-39.188-18.443-56.202c-1.049-1.616-3.646-0.114-2.59,1.514
						c10.904,16.798,13.88,36.311,18.141,55.485C996.316,711.205,999.208,710.404,998.789,708.52L998.789,708.52z"/>
				</g>
			</g>
			<g>
				<path fill="#F58B2A" d="M980.604,652.196c5.043,2.714,17.458,7.369,22.501,3.879c7.76-5.431-2.717-11.639-8.923-11.639
					c-3.88,0-8.535,1.939-12.413,3.491c4.655-3.491,14.354-20.561,1.164-19.397c-7.76,0.777-7.76,12.803-6.983,18.233
					c0-4.266-6.206-20.176-13.19-17.456c-11.25,4.654,8.147,18.62,10.862,20.172c-5.043-0.387-16.295,1.939-12.415,9.699
					c4.266,8.146,12.415-1.552,15.132-5.431c-1.552,3.879-6.208,10.861-4.269,15.129c2.328,5.043,6.208,3.104,8.148-1.164
					c1.938-3.879,0.774-12.025,0-15.905"/>
			</g>
			<g>
				<path fill="#214E25" d="M992.528,687.256c-1.925-4.816-7.221-8.666-12.515-8.666l0,0c4.331,2.887,6.258,10.59,12.515,10.59"/>
			</g>
			<g>
				<path fill="#214E25" d="M990.604,681.957c-0.481-4.33,3.853-9.627,8.667-10.59c-0.964,4.334-2.891,9.146-6.26,12.035"/>
			</g>
			<g>
				<g>
					<path fill="#5F4A18" d="M978.924,647.947c-0.146,0.287-0.305,0.567-0.479,0.84c-0.089,0.14-0.186,0.273-0.284,0.406
						c0.225-0.303-0.08,0.079-0.129,0.134c-0.093,0.103-0.192,0.199-0.294,0.295c-0.071,0.066-0.432,0.341-0.065,0.068
						c-0.182,0.135-0.38,0.247-0.585,0.343c0.462-0.216-0.108,0.013-0.272,0.041c0.516-0.091,0.206-0.028,0.068-0.026
						c-0.135,0.002-0.46-0.056,0.089,0.027c-0.079-0.012-0.156-0.033-0.232-0.056c-0.33-0.099,0.302,0.146,0.093,0.04
						c-0.066-0.034-0.129-0.076-0.19-0.12c0.416,0.294,0.193,0.15,0.096,0.051c-0.232-0.24,0.193,0.277,0.064,0.083
						c-0.07-0.106-0.188-0.394,0.023,0.106c-0.03-0.071-0.051-0.146-0.07-0.222c-0.088-0.343,0.028,0.35,0.01,0.1
						c-0.006-0.085-0.002-0.171,0.003-0.255c0.016-0.249-0.084,0.438,0.001,0.063c0.021-0.095,0.053-0.188,0.086-0.279
						c-0.166,0.463-0.045,0.111,0.014,0c0.053-0.102,0.115-0.197,0.179-0.292c0.137-0.205-0.221,0.255,0.054-0.066
						c0.185-0.218,0.397-0.41,0.615-0.593c0.129-0.104,0.121-0.099-0.021,0.015c0.067-0.05,0.136-0.099,0.205-0.146
						c0.146-0.102,0.299-0.194,0.451-0.286c0.344-0.207,0.706-0.383,1.071-0.548c-0.605-0.078-1.212-0.156-1.817-0.234
						c0.153,0.157,0.296,0.324,0.434,0.495c-0.259-0.321,0.05,0.072,0.096,0.137c0.086,0.12,0.166,0.244,0.245,0.368
						c0.074,0.116,0.142,0.235,0.207,0.356c0.201,0.37-0.05-0.172,0.023,0.033c0.015,0.043,0.026,0.086,0.036,0.131
						c-0.185-0.738,0.242-1.271,1.28-1.598c0.299,0.054,0.365,0.06,0.199,0.019c-0.139-0.05-0.114-0.04,0.071,0.031
						c-0.739-0.35-1.612-0.213-2.052,0.538c-0.386,0.658-0.201,1.702,0.538,2.052c0.668,0.316,1.436,0.555,2.122,0.116
						c0.715-0.457,0.938-1.298,0.698-2.087c-0.306-1.001-1.058-1.977-1.777-2.713c-0.507-0.519-1.2-0.514-1.817-0.234
						c-1.455,0.657-2.979,1.658-3.705,3.137c-0.644,1.308-0.569,2.72,0.375,3.853c0.809,0.968,2.31,1.173,3.449,0.79
						c1.605-0.539,2.739-1.937,3.484-3.399c0.372-0.729,0.197-1.621-0.538-2.052C980.302,647.014,979.295,647.219,978.924,647.947
						L978.924,647.947z"/>
				</g>
			</g>
		</g>
		<g>
			<g>
				<g>
					<path fill="#214E25" d="M1062.967,711.707c4.261-19.176,7.236-38.688,18.142-55.486c1.058-1.628-1.541-3.13-2.59-1.514
						c-11.048,17.015-14.126,36.768-18.444,56.203C1059.655,712.795,1062.547,713.596,1062.967,711.707L1062.967,711.707z"/>
				</g>
			</g>
			<g>
				<path fill="#F4B0EA" d="M1078.609,655.706c-3.128,1.685-10.831,4.573-13.96,2.407c-4.813-3.37,1.686-7.221,5.535-7.221
					c2.408,0,5.297,1.203,7.704,2.166c-2.888-2.166-8.905-12.759-0.722-12.037c4.813,0.482,4.813,7.945,4.332,11.314
					c0-2.647,3.851-12.518,8.184-10.832c6.98,2.888-5.055,11.555-6.739,12.518c3.129-0.241,10.109,1.203,7.703,6.016
					c-2.648,5.057-7.703-0.961-9.388-3.369c0.961,2.408,3.852,6.74,2.646,9.389c-1.443,3.129-3.852,1.924-5.054-0.723
					c-1.204-2.408-0.481-7.463,0-9.869"/>
			</g>
			<g>
				<path fill="#214E25" d="M1066.335,689.645c1.924-4.814,7.221-8.666,12.517-8.666l0,0c-4.334,2.889-6.259,10.592-12.517,10.592"
					/>
			</g>
			<g>
				<path fill="#214E25" d="M1068.259,684.348c0.482-4.332-3.85-9.627-8.664-10.59c0.963,4.332,2.889,9.145,6.258,12.033"/>
			</g>
			<g>
				<g>
					<path fill="#5F4A18" d="M1077.557,654.296c0.555,1.077,1.35,1.923,2.485,2.365c0.903,0.353,2.002,0.068,2.679-0.598
						c0.689-0.679,0.889-1.81,0.529-2.698c-0.492-1.216-1.506-2.028-2.68-2.564c-0.613-0.28-1.315-0.285-1.817,0.234
						c-0.531,0.55-1.047,1.25-1.267,1.994c-0.213,0.724,0.087,1.464,0.707,1.872c0.608,0.4,1.294,0.21,1.896-0.067
						c0.743-0.342,0.921-1.399,0.538-2.052c-0.442-0.756-1.31-0.88-2.052-0.538c0.35-0.187,0.727-0.164,1.131,0.066
						c0.18,0.18,0.358,0.359,0.538,0.538c0,0.99,0.051,1.294,0.153,0.914c-0.106,0.237-0.123,0.281-0.051,0.132
						c0.061-0.121,0.136-0.234,0.209-0.348c0.047-0.071,0.346-0.456,0.08-0.123c0.074-0.094,0.154-0.182,0.237-0.268
						c-0.605,0.078-1.212,0.156-1.817,0.234c0.187,0.086,0.369,0.176,0.549,0.274c0.082,0.045,0.162,0.093,0.24,0.142
						c0.042,0.025,0.396,0.279,0.109,0.058c0.117,0.09,0.225,0.192,0.329,0.297c0.307,0.308-0.099-0.192,0.112,0.143
						c0.213,0.34-0.063-0.216,0.015,0.002c0.015,0.046,0.027,0.092,0.037,0.139c0.066,0.271-0.031-0.402-0.023-0.134
						c0.008,0.25,0.101-0.437,0.012-0.097c-0.047,0.142-0.018,0.076,0.089-0.197c-0.051,0.109-0.207,0.284,0.111-0.116
						c-0.204,0.257,0.277-0.176,0.093-0.051c-0.279,0.19,0.374-0.104,0.038-0.02c-0.228,0.058,0.451-0.019,0.086-0.028
						c-0.154-0.014-0.088-0.004,0.197,0.026c-0.072-0.013-0.142-0.036-0.211-0.06c0.445,0.15,0.113,0.042-0.006-0.03
						c-0.127-0.088-0.1-0.063,0.082,0.074c-0.079-0.063-0.151-0.133-0.223-0.202c-0.051-0.052-0.101-0.104-0.147-0.159
						c-0.255-0.285,0.18,0.261-0.055-0.075c-0.131-0.188-0.239-0.391-0.345-0.594c-0.374-0.727-1.375-0.935-2.052-0.538
						C1077.361,652.673,1077.182,653.569,1077.557,654.296L1077.557,654.296z"/>
				</g>
			</g>
		</g>
		<g>
			<g>
				<g>
					<path fill="#214E25" d="M1014.093,704.502c0.834-8.028,2.479-15.855,5.001-23.522c1.426-4.334,3.29-8.501,5.385-12.548
						c1.684-3.252,4.321-6.038,6.259-9.146c1.027-1.646-1.569-3.151-2.59-1.514c-1.958,3.14-4.3,6.008-6.259,9.146
						c-2.194,3.515-3.671,7.729-5.105,11.6c-3.094,8.34-4.773,17.16-5.69,25.984
						C1010.893,706.426,1013.895,706.406,1014.093,704.502L1014.093,704.502z"/>
				</g>
			</g>
			<g>
				<path fill="#214E25" d="M1016.205,684.525c-3.612-2.407-5.297-6.499-5.056-11.074l0,0c2.888,1.687,5.536,6.5,5.056,10.109"/>
			</g>
			<g>
				<path fill="#214E25" d="M1015,690.783c1.927-1.926,5.296-3.129,8.666-2.406c-3.37,1.684-5.297,5.535-9.629,4.572"/>
			</g>
			<g>
				<path fill="#F58B2A" d="M1034.288,658.353c0.23,4.364-0.604,14.442-4.655,16.781c-6.273,3.58-7.143-5.664-5.121-9.944
					c1.266-2.677,4.12-5.254,6.456-7.422c-3.926,2.07-18.857,3.196-13.757-5.52c3.063-5.099,11.356-1.18,14.85,1.127
					c-2.942-1.393-11.89-10.854-7.741-14.784c6.877-6.242,10.185,11.685,10.372,14.064c1.376-3.606,6.646-10.604,10.733-5.402
					c4.226,5.599-5.116,8.055-8.676,8.665c3.182,0.194,9.512-0.74,11.823,1.986c2.719,3.25,0.117,5.29-3.457,5.24
					c-3.308,0.072-8.546-3.386-10.969-5.185"/>
			</g>
			<g>
				<g>
					<path fill="#5F4A18" d="M1032.007,658.449c1.359-0.043,2.742-0.359,3.755-1.322c0.756-0.719,1.191-1.983,0.771-2.986
						c-0.492-1.172-1.486-1.809-2.756-1.855c-1.485-0.056-2.854,0.86-3.933,1.775c-0.372,0.315-0.559,1.001-0.386,1.459
						c0.309,0.819,0.728,1.656,1.346,2.288c0.528,0.54,1.412,0.776,2.088,0.361c0.634-0.389,0.862-1.04,0.867-1.754
						c0.006-0.817-0.687-1.5-1.5-1.5c-0.822,0-1.494,0.683-1.5,1.5c-0.007,0.189,0.004,0.153,0.033-0.106
						c0.644-0.258,1.287-0.515,1.932-0.772c0.214,0.176,0.263,0.207,0.147,0.095c-0.098-0.113-0.076-0.082,0.063,0.095
						c-0.063-0.083-0.118-0.171-0.175-0.258c-0.102-0.155-0.19-0.318-0.278-0.481c-0.05-0.094-0.096-0.19-0.142-0.286
						c-0.149-0.315,0.119,0.31,0.011,0.022c-0.129,0.486-0.257,0.973-0.386,1.459c0.01-0.008,0.392-0.315,0.148-0.129
						c0.105-0.081,0.216-0.156,0.326-0.23c0.198-0.135,0.406-0.252,0.619-0.36c0.074-0.038,0.417-0.173,0.027-0.019
						c0.09-0.035,0.183-0.064,0.274-0.093c0.086-0.026,0.174-0.046,0.261-0.065c0.275-0.061-0.4,0.027,0.005,0.002
						c0.074-0.005,0.149-0.002,0.224,0c0.284,0.011-0.396-0.068-0.126-0.019c0.063,0.012,0.125,0.03,0.187,0.049
						c0.248,0.076-0.362-0.17-0.136-0.058c0.373,0.185-0.211-0.219,0.012-0.004c0.09,0.085,0.201,0.274-0.098-0.141
						c0.076,0.106,0.185,0.381-0.029-0.129c0.02,0.048,0.033,0.099,0.047,0.148c0.063,0.234-0.043-0.434-0.023-0.191
						c0.033,0.41,0.091-0.342,0.017-0.02c-0.095,0.408,0.159-0.273-0.008,0.021c-0.056,0.099-0.216,0.293,0.087-0.092
						c-0.058,0.072-0.124,0.138-0.19,0.201c-0.079,0.075-0.301,0.222,0.068-0.047c-0.066,0.048-0.136,0.09-0.206,0.131
						c-0.075,0.044-0.154,0.082-0.232,0.119c0.394-0.188,0.102-0.045,0.008-0.012c-0.201,0.07-0.409,0.117-0.618,0.158
						c-0.387,0.076,0.338-0.031-0.075,0.014c-0.175,0.019-0.351,0.025-0.526,0.031c-0.817,0.025-1.5,0.663-1.5,1.5
						C1030.507,657.747,1031.189,658.475,1032.007,658.449L1032.007,658.449z"/>
				</g>
			</g>
		</g>
	</g>
	<g display="inline">
		<g>
			<g>
				<g>
					<path fill="#214E25" d="M195.143,681.58c-1.784-8.128-3.153-16.205-7.659-23.354c-0.257-0.408-0.906-0.031-0.647,0.379
						c4.478,7.105,5.814,15.114,7.583,23.175C194.523,682.252,195.246,682.052,195.143,681.58L195.143,681.58z"/>
				</g>
			</g>
			<g>
				<path fill="#FFFFFF" d="M187.807,658.049c2.101,1.131,7.273,3.07,9.375,1.616c3.232-2.263-1.132-4.849-3.718-4.849
					c-1.616,0-3.556,0.808-5.171,1.454c1.939-1.454,5.98-8.566,0.485-8.081c-3.233,0.323-3.233,5.334-2.909,7.596
					c0-1.777-2.585-8.405-5.495-7.272c-4.687,1.939,3.394,7.758,4.525,8.404c-2.101-0.161-6.789,0.808-5.173,4.041
					c1.778,3.394,5.173-0.646,6.305-2.263c-0.646,1.616-2.586,4.525-1.778,6.303c0.97,2.102,2.586,1.293,3.395-0.484
					c0.807-1.616,0.323-5.011,0-6.627"/>
			</g>
			<g>
				<path fill="#214E25" d="M192.775,672.655c-0.802-2.007-3.008-3.61-5.214-3.61l0,0c1.804,1.202,2.607,4.411,5.214,4.411"/>
			</g>
			<g>
				<path fill="#214E25" d="M191.973,670.447c-0.201-1.804,1.605-4.011,3.61-4.411c-0.401,1.806-1.204,3.811-2.607,5.014"/>
			</g>
			<g>
				<path fill="#2A73FF" d="M187.646,656.594c-1.293,2.586-3.556,0.322-0.646-0.97c0.323,0.322,0.969,1.292,0.323,0.97"/>
			</g>
		</g>
		<g>
			<g>
				<g>
					<path fill="#214E25" d="M221.88,682.775c1.769-8.061,3.104-16.07,7.583-23.176c0.259-0.411-0.391-0.786-0.647-0.379
						c-4.506,7.149-5.875,15.228-7.659,23.355C221.053,683.048,221.776,683.248,221.88,682.775L221.88,682.775z"/>
				</g>
			</g>
			<g>
				<path fill="#F58B2A" d="M228.637,659.511c-1.303,0.702-4.512,1.905-5.815,1.003c-2.005-1.404,0.702-3.008,2.306-3.008
					c1.003,0,2.207,0.501,3.209,0.902c-1.203-0.902-3.71-5.315-0.301-5.015c2.006,0.2,2.006,3.31,1.805,4.714
					c0-1.104,1.604-5.216,3.41-4.514c2.908,1.204-2.106,4.814-2.808,5.216c1.304-0.101,4.212,0.501,3.209,2.506
					c-1.104,2.106-3.209-0.4-3.911-1.403c0.4,1.003,1.604,2.808,1.103,3.911c-0.602,1.304-1.604,0.802-2.105-0.301
					c-0.502-1.004-0.201-3.109,0-4.111"/>
			</g>
			<g>
				<path fill="#214E25" d="M223.523,673.65c0.802-2.006,3.008-3.61,5.215-3.61l0,0c-1.806,1.203-2.607,4.412-5.215,4.412"/>
			</g>
			<g>
				<path fill="#214E25" d="M224.325,671.443c0.201-1.805-1.604-4.011-3.609-4.412c0.401,1.806,1.203,3.811,2.607,5.014"/>
			</g>
			<g>
				<g>
					<path fill="#5F4A18" d="M227.443,659.365c0.716,1.335,2.265,1.969,3.515,0.925c0.535-0.447,0.678-1.341,0.463-1.972
						c-0.251-0.737-0.831-1.277-1.524-1.606c-0.597-0.284-1.334-0.289-1.818,0.234c-0.416,0.449-0.783,0.987-0.807,1.62
						c-0.04,1.051,1.078,1.878,2.066,1.488c0.76-0.3,1.282-0.993,1.047-1.845c-0.199-0.725-1.083-1.349-1.845-1.048
						c0.084-0.006,0.169-0.011,0.253-0.017c0.354,0.146,0.708,0.293,1.061,0.439c-0.008-0.01-0.017-0.019-0.024-0.028
						c0.146,0.354,0.293,0.708,0.439,1.062c-0.199,0.566-0.228,0.722-0.085,0.466c0.187-0.311-0.193,0.209,0.015-0.017
						c-0.606,0.078-1.212,0.156-1.818,0.234c0.091,0.04,0.18,0.085,0.266,0.135c0.359,0.195-0.174-0.184,0.072,0.053
						c-0.039-0.053-0.078-0.104-0.117-0.157c0.081,0.142,0.063,0.093-0.051-0.146c-0.093-0.273,0-0.555,0.117-0.8
						c0.252-0.522,0.914-0.643,1.393-0.418c-0.264-0.124,0.25,0.244,0.014-0.001c0.245,0.254,0.001-0.036-0.042-0.115
						c-0.386-0.72-1.367-0.94-2.052-0.538C227.257,657.737,227.057,658.645,227.443,659.365L227.443,659.365z"/>
				</g>
			</g>
		</g>
	</g>
</g>
<g id="Layer_1" display="none">
	<g display="inline">
		<ellipse fill-rule="evenodd" clip-rule="evenodd" fill="#2D7641" cx="1429.785" cy="738.355" rx="58.044" ry="12.137"/>
		<g>
			<g>
				<path fill="#FFD77F" d="M1455.524,635.593c9.229,6.091,18.193,12.167,27.91,18.195c1.089,0.534,2.298,0.612,3.142,1.323"/>
				<g>
					<path fill="#563B18" d="M1454.957,636.564c10.236,6.765,20.438,13.467,31.052,19.519c1.262,0.72,2.396-1.225,1.135-1.943
						c-10.619-6.056-20.812-12.752-31.052-19.519C1454.878,633.818,1453.752,635.769,1454.957,636.564L1454.957,636.564z"/>
				</g>
			</g>
			<g>
				<path fill="#FFD77F" d="M1476.715,649.169c3.265,1.606,6.713,2.522,10.271,1.623"/>
				<g>
					<path fill="#563B18" d="M1476.147,650.141c3.573,1.699,7.207,2.6,11.138,1.736c1.417-0.312,0.816-2.48-0.598-2.17
						c-3.308,0.727-6.405-0.082-9.405-1.51C1475.979,647.578,1474.837,649.518,1476.147,650.141L1476.147,650.141z"/>
				</g>
			</g>
			<g>
				<path fill="#FFD77F" d="M1477.657,649.788c0,0,5.925-2.854,7.925-3.431"/>
				<g>
					<path fill="#563B18" d="M1478.225,650.76c2.484-1.195,5.015-2.512,7.656-3.317c1.384-0.422,0.794-2.595-0.598-2.17
						c-2.824,0.861-5.538,2.267-8.193,3.544C1475.782,649.445,1476.924,651.385,1478.225,650.76L1478.225,650.76z"/>
				</g>
			</g>
			<g>
				<path fill="#FFD77F" d="M1479.108,651.283c-0.551,2.066,1.22,5.121,2.922,7.049"/>
				<g>
					<path fill="#563B18" d="M1478.023,650.984c-0.614,3.019,1.336,5.957,3.211,8.144c0.947,1.103,2.531-0.497,1.592-1.592
						c-1.277-1.488-3.061-3.854-2.633-5.954C1480.481,650.166,1478.313,649.563,1478.023,650.984L1478.023,650.984z"/>
				</g>
			</g>
			<g>
				<path fill="#FFD77F" d="M1477.039,650.731c-1.239,1.884-1.283,4.825-0.02,7.007"/>
				<g>
					<path fill="#563B18" d="M1476.067,650.164c-1.513,2.503-1.378,5.606-0.02,8.142c0.686,1.279,2.628,0.144,1.943-1.135
						c-0.986-1.839-1.074-4.062,0.02-5.872C1478.763,650.054,1476.816,648.924,1476.067,650.164L1476.067,650.164z"/>
				</g>
			</g>
		</g>
		<g>
			<g>
				<path fill="#FFD77F" d="M1398.201,640.58c7.966,7.667,15.678,15.272,24.135,22.967c0.974,0.725,2.149,1.018,2.85,1.874"/>
				<g>
					<path fill="#563B18" d="M1396.61,642.171c8.835,8.515,17.661,16.951,26.984,24.841c2.2,1.862,5.4-1.305,3.182-3.182
						c-9.333-7.898-18.146-16.324-26.984-24.841C1397.703,636.976,1394.518,640.154,1396.61,642.171L1396.61,642.171z"/>
				</g>
			</g>
			<g>
				<path fill="#FFD77F" d="M1416.57,657.784c2.917,2.171,6.141,3.7,9.805,3.465"/>
				<g>
					<path fill="#563B18" d="M1415.435,659.727c3.237,2.352,6.878,3.921,10.94,3.772c2.893-0.105,2.903-4.606,0-4.5
						c-3.317,0.121-6.041-1.249-8.669-3.157C1415.354,654.133,1413.111,658.039,1415.435,659.727L1415.435,659.727z"/>
				</g>
			</g>
			<g>
				<path fill="#FFD77F" d="M1417.384,658.563c0,0,6.345-1.727,8.416-1.93"/>
				<g>
					<path fill="#563B18" d="M1417.982,660.732c1.019-0.277,2.041-0.54,3.065-0.798c0.87-0.219,1.743-0.427,2.619-0.626
						c0.461-0.104,0.925-0.2,1.389-0.293c0.104-0.021,1.08-0.171,0.744-0.133c1.218-0.14,2.25-0.918,2.25-2.25
						c0-1.121-1.028-2.39-2.25-2.25c-3.051,0.349-6.057,1.207-9.015,2.01C1413.988,657.152,1415.177,661.493,1417.982,660.732
						L1417.982,660.732z"/>
				</g>
			</g>
			<g>
				<path fill="#FFD77F" d="M1418.537,660.295c-0.917,1.934,0.269,5.258,1.59,7.465"/>
				<g>
					<path fill="#563B18" d="M1416.367,659.697c-1.192,2.985,0.316,6.605,1.817,9.198c1.452,2.51,5.342,0.245,3.885-2.271
						c-0.931-1.608-2.11-3.858-1.362-5.731c0.455-1.141-0.488-2.47-1.572-2.768C1417.853,657.772,1416.822,658.559,1416.367,659.697
						L1416.367,659.697z"/>
				</g>
			</g>
			<g>
				<path fill="#FFD77F" d="M1416.603,659.377c-1.561,1.629-2.138,4.514-1.291,6.889"/>
				<g>
					<path fill="#563B18" d="M1415.012,657.786c-2.196,2.475-2.878,5.927-1.87,9.077c0.881,2.753,5.226,1.576,4.34-1.195
						c-0.502-1.569-0.431-3.412,0.712-4.7C1420.112,658.806,1416.941,655.611,1415.012,657.786L1415.012,657.786z"/>
				</g>
			</g>
		</g>
		<g>
			<path fill-rule="evenodd" clip-rule="evenodd" fill="#83CCB7" stroke="#4B71B6" stroke-width="3" stroke-miterlimit="10" d="
				M1374.503,683.658c-3.805-0.672-6.512-3.982-6.051-7.395l7.34-54.272c0.464-3.413,3.919-5.636,7.724-4.966l0,0
				c3.802,0.673,6.51,3.981,6.05,7.396l-7.341,54.271C1381.764,682.104,1378.306,684.329,1374.503,683.658L1374.503,683.658z"/>
			<path fill-rule="evenodd" clip-rule="evenodd" fill="#F58849" stroke="#DD5832" stroke-width="4" stroke-miterlimit="10" d="
				M1404.78,679.093c-0.453,3.061-3.898,5.084-7.692,4.521l-9.736-1.439c-3.795-0.563-6.504-3.498-6.052-6.557l6.629-44.779
				c0.454-3.058,3.898-5.083,7.692-4.522l9.736,1.443c3.795,0.562,6.504,3.497,6.051,6.558L1404.78,679.093z"/>
			<g>
				<g>
					<path fill="#4B71B6" d="M1383.124,617.854c3.698,1.968,1.089,7.589-2.546,7.752c-1.864,0.085-0.713-4.244,1.228-3.314
						c1.302,0.623,2.443-1.316,1.135-1.943c-4.453-2.133-7.959,5.553-3.658,7.266c2.855,1.139,5.784-1.356,7.067-3.683
						c1.612-2.926,0.928-6.415-2.091-8.021C1382.979,615.229,1381.842,617.172,1383.124,617.854L1383.124,617.854z"/>
				</g>
			</g>
		</g>
		<g>
			<g>
				<path fill="#FFD77F" d="M1434.889,713.508c0.236,5.066,0.473,10.131,0.688,14.771"/>
				<g>
					<path fill="#563B18" d="M1433.389,713.508c0.229,4.924,0.459,9.848,0.688,14.771c0.09,1.926,3.09,1.935,3,0
						c-0.229-4.924-0.459-9.848-0.688-14.771C1436.299,711.582,1433.299,711.573,1433.389,713.508L1433.389,713.508z"/>
				</g>
			</g>
		</g>
		<g>
			<g>
				<path fill="#FFD77F" d="M1414.83,714.041c0.085,5.068,0.17,10.138,0.25,14.786"/>
				<g>
					<path fill="#563B18" d="M1413.33,714.041c0.083,4.929,0.165,9.857,0.25,14.786c0.033,1.933,3.033,1.936,3,0
						c-0.085-4.929-0.167-9.857-0.25-14.786C1416.298,712.108,1413.298,712.105,1413.33,714.041L1413.33,714.041z"/>
				</g>
			</g>
		</g>
		<g>
			<g>
				<g>
					<path fill="#90A339" d="M1405.634,641.15c-2.643,2.074-4.855,4.193-6.823,6.95c-2.379,3.334-0.595,8.337,2.691,10.261
						c1.732,1.016,3.843,1.289,5.779,0.757c2.014-0.554,3.307-1.8,4.482-3.447c0.15-0.218,0.308-0.432,0.471-0.641
						c-0.391,0.506-0.782,1.012-1.173,1.518c1.484-1.855,3.319-3.331,5.18-4.79c1.47-1.154,2.196-3.523,2.196-5.304
						c0-1.981-0.797-3.903-2.196-5.304c-1.4-1.399-3.322-2.196-5.304-2.196C1408.759,638.954,1407.276,639.862,1405.634,641.15
						L1405.634,641.15z"/>
				</g>
			</g>
			<path fill-rule="evenodd" clip-rule="evenodd" fill="#90C753" stroke="#000000" stroke-width="4" stroke-miterlimit="10" d="
				M1468.822,675.395c0,25.527-12.482,40.646-39.217,40.646c-26.733,0-48.828-3.636-40.968-52.049
				c4.404-27.118,13.812-41.13,40.546-41.13C1455.916,622.861,1468.822,649.866,1468.822,675.395z"/>
			<g>
				<g>
					<path fill="#1F3A1A" d="M1400.21,667.248c8.442-2.378,15.817-6.812,22.916-11.85c6.936-4.922,13.757-10.653,21.87-13.527
						c9.051-3.207,5.153-17.703-3.988-14.465c-16.424,5.819-28.007,20.653-44.786,25.377
						C1386.926,655.4,1390.88,669.874,1400.21,667.248L1400.21,667.248z"/>
				</g>
			</g>
			<g>
				<g>
					<path fill="#90A339" d="M1458.598,674.497c-10.453-3.125-20.121-0.625-27.75,7.095c-6.001,6.071-9.961,11.128-19.028,11.3
						c-9.661,0.183-9.679,15.184,0,15c8.716-0.165,15.854-2.631,22.422-8.375c2.944-2.574,5.513-5.599,8.26-8.377
						c3.462-3.504,7.626-3.519,12.108-2.178C1463.901,691.739,1467.842,677.261,1458.598,674.497L1458.598,674.497z"/>
				</g>
			</g>
			<g>
				<g>
					<path fill="#1F3A1A" d="M1429.327,654.786c1.256-0.404-2.562-0.366-0.604,0.087c0.642,0.149,1.905,0.626,2.194,0.756
						c2.977,1.346,5.775,3.105,8.513,4.876c4.532,2.933,9.211,6.215,12.827,10.267c6.454,7.23,17.025-3.416,10.607-10.607
						c-4.691-5.254-10.966-9.442-16.84-13.242c-5.542-3.586-13.758-8.829-20.687-6.601
						C1416.17,643.271,1420.092,657.757,1429.327,654.786L1429.327,654.786z"/>
				</g>
			</g>
			<g>
				<g>
					<path fill="#90A339" d="M1406.884,680.317c1.56,3.316,1.335,5.509-0.675,6.577c0.529-0.35,1.078-0.666,1.645-0.95
						c0.865-0.467,1.798-0.733,2.732-1.033c2.807-0.901,5.746-0.854,8.838-1.565c7.245-1.669,12.157-7.199,15.131-13.72
						c1.697-3.72,1.099-8.042-2.69-10.261c-3.256-1.908-8.564-1.03-10.261,2.69c-1.483,3.251-2.646,5.819-6.167,6.825
						c-3.516,1.005-7.124,0.931-10.616,2.167c-3.857,1.365-8.517,3.465-10.652,7.193c-2.483,4.337-1.689,9.385,2.108,12.684
						C1403.543,697.235,1414.199,686.672,1406.884,680.317L1406.884,680.317z"/>
				</g>
			</g>
			<g>
				<g>
					<path fill="#1F3A1A" d="M1421.919,655.333c-8.779,8.13-15.908,17.83-23.192,27.271c-2.504,3.246-0.497,8.394,2.691,10.261
						c3.868,2.267,7.769,0.54,10.262-2.69c6.511-8.438,13.001-16.97,20.847-24.233
						C1439.638,659.355,1429.005,648.773,1421.919,655.333L1421.919,655.333z"/>
				</g>
			</g>
			<g>
				<g>
					<path fill="#90A339" d="M1428.789,647.928c1.399,11.462,2.197,23.017,2.613,34.554c0.348,9.644,15.35,9.678,15,0
						c-0.416-11.537-1.214-23.092-2.613-34.554c-0.495-4.057-3.037-7.5-7.5-7.5C1432.576,640.428,1428.292,643.859,1428.789,647.928
						L1428.789,647.928z"/>
				</g>
			</g>
			<g>
				<g>
					<path fill="#90A339" d="M1443.248,676.984c-1.76,3.746-2.415,7.515-3.368,11.494c-0.951,3.973,1.2,8.115,5.238,9.227
						c3.84,1.056,8.274-1.264,9.227-5.238c0.335-1.399,0.6-2.813,0.891-4.223c0.174-0.844,0.38-1.678,0.604-2.509
						c0.098-0.359,1.109-2.773,0.361-1.181c1.738-3.7,1.067-8.06-2.691-10.261C1450.224,672.368,1444.987,673.284,1443.248,676.984
						L1443.248,676.984z"/>
				</g>
			</g>
			<g>
				<g>
					<path fill="#90A339" d="M1409.757,665.841c0.225,2.904,0.473,5.85,1.013,8.712c0.76,4.02,5.532,6.254,9.227,5.238
						c4.18-1.15,5.996-5.213,5.238-9.227c-0.078-0.411-0.141-0.825-0.197-1.24c0.089,0.665,0.178,1.329,0.268,1.994
						c-0.238-1.819-0.406-3.648-0.548-5.478c-0.315-4.074-3.173-7.5-7.5-7.5C1413.407,658.341,1409.44,661.76,1409.757,665.841
						L1409.757,665.841z"/>
				</g>
			</g>
			<g>
				<g>
					<path fill="#90A339" d="M1407.11,688.453c-0.019-2.051-0.12-4.1-0.115-6.15c0.003-1.418,0.135-2.962,0.585-3.874
						c1.807-3.667,1.02-8.088-2.691-10.261c-3.336-1.955-8.455-0.975-10.262,2.69c-2.806,5.693-2.573,11.425-2.517,17.595
						C1392.199,698.121,1407.199,698.13,1407.11,688.453L1407.11,688.453z"/>
				</g>
			</g>
			<g>
				<g>
					<path fill="#1F3A1A" d="M1438.188,638.833c0.628,0.084,1.256,0.169,1.884,0.253c0.597,4.569,1.194,9.139,1.791,13.708
						c-2.063,1.359-1.839,0.716-0.311,0.452c1.141-0.197,2.285-0.374,3.43-0.555c2.237-0.353,4.482-0.673,6.71-1.087
						c4.021-0.749,6.252-5.54,5.238-9.227c-1.152-4.188-5.211-5.985-9.227-5.238c-2.227,0.415-4.472,0.736-6.71,1.088
						c-2.106,0.331-4.854,0.398-6.701,1.614c-2.242,1.477-3.715,3.723-3.715,6.477c0,3.65,2.364,5.935,5.506,7.232
						c0.655,0.27,1.398,0.25,2.104,0.282c4.087,0.184,7.5-3.551,7.5-7.5C1445.688,642.105,1442.271,639.017,1438.188,638.833
						L1438.188,638.833z"/>
				</g>
			</g>
			<g>
				<g>
					<path fill="#1F3A1A" d="M1407.721,647.443c2.109,3.263,5.314,5.873,8.123,8.505c2.981,2.793,7.646,2.96,10.607,0
						c2.818-2.819,2.983-7.812,0-10.607c-1.335-1.25-2.668-2.503-3.979-3.779c-0.606-0.59-1.204-1.189-1.788-1.802
						c-0.198-0.207-0.391-0.42-0.581-0.634c-1.012-1.131,1.031,1.462,0.57,0.747c-2.215-3.427-6.615-4.827-10.262-2.69
						C1407.005,639.178,1405.5,644.006,1407.721,647.443L1407.721,647.443z"/>
				</g>
			</g>
			<g>
				<g>
					<path fill="#1F3A1A" d="M1399.825,687.537c2.156-0.641,4.31-1.255,6.544-1.56c1.805-0.247,3.607-1.955,4.482-3.447
						c1.014-1.731,1.288-3.843,0.756-5.779c-0.516-1.874-1.771-3.5-3.447-4.481c-1.915-1.122-3.675-1.044-5.779-0.757
						c-2.233,0.305-4.387,0.92-6.544,1.56c-3.916,1.162-6.338,5.227-5.238,9.227
						C1391.666,686.179,1395.906,688.699,1399.825,687.537L1399.825,687.537z"/>
				</g>
			</g>
			<g>
				<g>
					<path fill="#90A339" d="M1438.528,706.556c4.79,0.45,8.85-2.376,12.396-5.181c3.211-2.541,2.638-7.969,0-10.607
						c-1.4-1.399-3.322-2.196-5.304-2.196c-2.172,0-3.669,0.903-5.304,2.196c1.766-1.396,0.471-0.366,0.086-0.091
						c-0.518,0.371-1.063,0.694-1.621,1.001c-1.468,0.811,1.615-0.537,0.04-0.039c-0.808,0.182-0.599,0.169,0.628-0.04
						c-0.309,0.015-0.615,0-0.921-0.043c-4.077-0.383-7.5,3.701-7.5,7.5C1431.028,703.434,1434.459,706.174,1438.528,706.556
						L1438.528,706.556z"/>
				</g>
			</g>
			<g>
				<g>
					<path fill="#1F3A1A" d="M1437.91,701.438c1.249-0.52,2.516-0.946,3.826-1.286c0.552-0.144,1.114-0.245,1.676-0.346
						c-2.087,0.372,0.234,0.042,0.716,0.033c4.087-0.076,7.5-3.354,7.5-7.5c0-4.03-3.411-7.576-7.5-7.5
						c-3.497,0.065-6.98,0.795-10.206,2.134c-1.897,0.788-3.4,1.601-4.482,3.447c-1.014,1.732-1.288,3.843-0.756,5.779
						C1429.666,699.77,1434.127,703.008,1437.91,701.438L1437.91,701.438z"/>
				</g>
			</g>
			<g>
				<g>
					<path fill="#90A339" d="M1446.702,662.855c0.056,0.474,0.086,0.936,0.094,1.412c-0.003,0.321-0.021,0.642-0.054,0.961
						c0.176-1.185,0.18-1.367,0.012-0.547c-0.101,0.449-0.739,1.979,0.091,0.085c-0.196,0.448-1.472,2.258-0.184,0.623
						c-1.291,1.638-2.196,3.129-2.196,5.304c0,1.981,0.797,3.903,2.196,5.304c2.636,2.635,8.071,3.215,10.607,0
						c2.957-3.751,5.01-8.233,4.434-13.142c-0.477-4.06-3.051-7.5-7.5-7.5C1450.476,655.355,1446.225,658.785,1446.702,662.855
						L1446.702,662.855z"/>
				</g>
			</g>
			<g>
				<g>
					<path fill="#90A339" d="M1424.05,636.47c2.032,0.91,3.937,2.053,5.712,3.396c1.515,1.147,4.032,1.237,5.779,0.757
						c1.874-0.516,3.5-1.771,4.482-3.447c1.014-1.731,1.288-3.843,0.756-5.779c-0.565-2.056-1.814-3.246-3.447-4.481
						c-1.774-1.344-3.679-2.486-5.712-3.396c-1.92-0.859-3.671-1.337-5.779-0.757c-1.874,0.516-3.5,1.771-4.481,3.447
						c-1.016,1.732-1.289,3.843-0.757,5.779C1421.071,633.691,1422.368,635.718,1424.05,636.47L1424.05,636.47z"/>
				</g>
			</g>
			<g>
				<g>
					<path fill="#293015" d="M1445.246,689.049c0.398,0.01,2.314,0.253,0.322-0.058c0.744,0.116,1.475,0.319,2.199,0.519
						c1.242,0.343,2.46,0.773,3.695,1.138c3.921,1.153,8.157-1.352,9.227-5.238c1.098-3.993-1.319-8.073-5.238-9.227
						c-3.395-0.998-6.614-2.046-10.205-2.134c-4.089-0.1-7.5,3.487-7.5,7.5C1437.746,685.713,1441.16,688.949,1445.246,689.049
						L1445.246,689.049z"/>
				</g>
			</g>
			<g>
				<g>
					<path fill="#293015" d="M1404.707,667.873c0.335-0.79,0.77-1.5,1.283-2.187c-0.392,0.506-0.782,1.012-1.173,1.518
						c0.748-0.951,1.594-1.811,2.449-2.665c2.889-2.89,2.89-7.718,0-10.607c-2.89-2.889-7.718-2.89-10.607,0
						c-1.871,1.872-3.858,3.906-4.905,6.371c-0.827,1.951-1.344,3.642-0.756,5.779c0.516,1.874,1.771,3.5,3.447,4.481
						c1.732,1.015,3.843,1.289,5.779,0.757C1401.898,670.859,1403.994,669.553,1404.707,667.873L1404.707,667.873z"/>
				</g>
			</g>
			<g>
				<g>
					<path fill="#293015" d="M1437.389,682.035c1.801-3.197,3.613-6.396,5.609-9.476c2.225-3.435,0.712-8.268-2.691-10.261
						c-3.649-2.139-8.043-0.733-10.262,2.69c-1.995,3.08-3.808,6.278-5.607,9.476c-2.007,3.563-0.876,8.172,2.69,10.261
						C1430.611,686.767,1435.386,685.593,1437.389,682.035L1437.389,682.035z"/>
				</g>
			</g>
			<g>
				<g>
					<path fill="#293015" d="M1429.932,652.309c0.479,0.295,0.938,0.609,1.384,0.952c-0.507-0.391-1.013-0.781-1.519-1.173
						c0.794,0.639,1.504,1.349,2.142,2.143c-0.391-0.506-0.781-1.013-1.173-1.519c0.344,0.446,0.659,0.905,0.953,1.385
						c2.137,3.477,6.677,4.791,10.262,2.69c3.467-2.03,4.832-6.775,2.691-10.261c-1.815-2.954-4.215-5.355-7.17-7.169
						c-3.486-2.142-8.23-0.777-10.262,2.69C1425.141,645.633,1426.454,650.174,1429.932,652.309L1429.932,652.309z"/>
				</g>
			</g>
			<g>
				<g>
					<path fill="#293015" d="M1398.138,678.392c0.502,0.271,1.321,1.032-0.779-0.638c0.483,0.385,0.949,0.793,1.417,1.196
						c1.21,1.046,2.395,2.121,3.574,3.199c2.27,2.072,4.554,4.159,6.648,6.41c2.786,2.992,7.795,2.812,10.607,0
						c2.967-2.968,2.783-7.617,0-10.607c-2.229-2.394-4.668-4.601-7.081-6.804c-2.059-1.881-4.347-4.379-6.816-5.708
						c-3.601-1.938-8.143-0.926-10.261,2.69C1393.436,671.563,1394.542,676.456,1398.138,678.392L1398.138,678.392z"/>
				</g>
			</g>
			<g>
				<g>
					<path fill="#90A339" d="M1410.024,645.816c-0.312-2.221-0.063-0.43-0.017,0.018c0.053,0.512,0.07,1.024,0.082,1.537
						c0.012,0.517-0.254,2.147,0.098,0.011c-0.063,0.323-0.147,0.642-0.255,0.953c0.467-1.021,0.501-1.174,0.101-0.46
						c-2.111,3.503-0.798,8.218,2.691,10.261c3.563,2.088,8.154,0.805,10.262-2.69c2.585-4.288,2.166-8.902,1.503-13.617
						c-0.57-4.056-5.674-6.215-9.227-5.238c-1.874,0.516-3.5,1.771-4.481,3.447C1409.662,641.946,1409.729,643.717,1410.024,645.816
						L1410.024,645.816z"/>
				</g>
			</g>
			<g>
				<g>
					<path fill="#1F3A1A" d="M1413.524,652.742c-0.108-0.002-0.213-0.007-0.32-0.019c0.665,0.089,1.329,0.179,1.994,0.268
						c-0.046-0.006-0.091-0.017-0.134-0.032c0.597,0.252,1.193,0.504,1.791,0.756c-0.015-0.007-0.03-0.014-0.045-0.021
						c0.506,0.391,1.012,0.782,1.518,1.173c-0.01-0.009-0.021-0.017-0.03-0.025c0.391,0.507,0.781,1.013,1.173,1.519
						c-0.006-0.01-0.012-0.02-0.018-0.028c0.252,0.597,0.504,1.194,0.756,1.791c-0.001-0.011-0.003-0.021-0.004-0.031
						c0,1.329,0,2.658,0,3.987c0.002-0.012,0.005-0.023,0.008-0.035c-0.252,0.598-0.504,1.194-0.756,1.792
						c0.007-0.013,0.014-0.025,0.02-0.038c-0.391,0.506-0.781,1.013-1.172,1.519c0.038-0.05,0.079-0.089,0.127-0.13
						c-0.506,0.391-1.012,0.782-1.518,1.173c1.33-1.019,3.096-1.352,4.501-2.252c3.437-2.199,4.82-6.626,2.69-10.261
						c-2.002-3.418-6.814-4.897-10.261-2.69c-1.204,0.771-2.617,1.21-3.883,1.87c-1.962,1.023-3.702,2.867-4.222,5.065
						c-0.462,1.959-0.303,4.063,0.761,5.811c0.595,0.977,1.674,2.232,2.739,2.744c1.517,0.729,2.567,1.067,4.284,1.097
						c4.089,0.07,7.5-3.465,7.5-7.5C1421.024,656.101,1417.611,652.813,1413.524,652.742L1413.524,652.742z"/>
				</g>
			</g>
			<g>
				<g>
					<path fill="#90A339" d="M1429.327,693.601c2.667-0.9,5.329-1.941,7.762-3.369c3.521-2.065,4.76-6.729,2.69-10.261
						c-2.062-3.52-6.733-4.761-10.261-2.69c-0.921,0.54-1.867,1.017-2.846,1.445c0.597-0.253,1.194-0.505,1.791-0.757
						c-1.026,0.432-2.069,0.812-3.125,1.167c-3.87,1.306-6.369,5.115-5.238,9.227
						C1421.139,692.134,1425.452,694.908,1429.327,693.601L1429.327,693.601z"/>
				</g>
			</g>
			<g>
				<g>
					<path fill="#1F3A1A" d="M1410.279,645.911c0.604,0.007,1.205,0.026,1.809,0.06c0.33,0.019,2.346,0.273,0.418-0.003
						c1.223,0.175,2.426,0.468,3.616,0.795c3.94,1.081,8.142-1.297,9.227-5.238c1.083-3.938-1.298-8.146-5.238-9.227
						c-3.188-0.874-6.524-1.351-9.831-1.387c-4.089-0.045-7.5,3.445-7.5,7.5C1402.779,642.533,1406.191,645.866,1410.279,645.911
						L1410.279,645.911z"/>
				</g>
			</g>
			<g>
				<g>
					<path fill="#90A339" d="M1399.155,678.748c0.342,0.009,0.673,0.032,1.013,0.074c-0.665-0.09-1.329-0.179-1.994-0.269
						c0.743,0.126,1.441,0.34,2.141,0.619c-0.598-0.252-1.194-0.504-1.792-0.756c0.577,0.247,1.139,0.521,1.7,0.801
						c1.849,0.924,3.737,1.318,5.779,0.757c1.874-0.516,3.5-1.771,4.482-3.447c1.962-3.351,0.964-8.436-2.691-10.261
						c-2.803-1.4-5.463-2.439-8.638-2.519c-4.089-0.102-7.5,3.488-7.5,7.5C1391.655,675.413,1395.069,678.646,1399.155,678.748
						L1399.155,678.748z"/>
				</g>
			</g>
		</g>
		<path fill-rule="evenodd" clip-rule="evenodd" fill="#1C2C16" d="M1468.369,675.877c-5.003,0.562-9.34,3.829-14.371,4.635
			c-4.981,0.797-10.004,1.21-15.005,1.845c-0.495,0.063-0.928,0.024-1.304-0.091c-0.207,0.047-0.423,0.082-0.656,0.091
			c-0.612,0.024-1.212,0.003-1.812-0.031c-0.4,0.204-0.869,0.334-1.415,0.354c-0.671,0.471-1.531,0.713-2.537,0.533
			c-0.4,0.229-0.873,0.391-1.416,0.439c-5.295,0.501-10.42-0.882-15.669-1.295c-0.56-0.044-1.042-0.202-1.454-0.437
			c-5.018-0.756-9.995-1.718-14.835-3.13c-0.011,0-0.021,0.001-0.03,0.001c-0.988,0.09-1.738-0.205-2.26-0.709
			c-2.709-0.888-5.37-1.929-7.964-3.176c-0.29-0.006-0.58-0.01-0.875,0c-0.14,0.001-0.271-0.002-0.403-0.014
			c-2.292,36.85,18.393,39.865,42.943,39.865c26.413,0,39.084-14.472,39.688-39.008
			C1468.797,675.805,1468.588,675.852,1468.369,675.877z"/>
		<g>
			<g>
				<path d="M1386.844,676.135c25.954,10.608,55.217,10.111,81.238,0.006c1.783-0.692,1.009-3.594-0.797-2.893
					c-25.599,9.94-54.115,10.429-79.645-0.006C1385.85,672.51,1385.078,675.413,1386.844,676.135L1386.844,676.135z"/>
			</g>
		</g>
		<g>
			<g>
				<path fill="#DD5832" d="M1399.996,629.201c7.479,10.249-1.775,24.626-12.907,27.18c-3.771,0.864-2.171,6.649,1.596,5.785
					c14.658-3.362,26.227-22.654,16.493-35.994C1402.921,623.081,1397.712,626.069,1399.996,629.201L1399.996,629.201z"/>
			</g>
		</g>
		<g>
			<g>
				<path fill="#FFD77F" d="M1400.297,640.438c-7.968,7.668-15.679,15.272-24.136,22.967c-0.974,0.725-2.15,1.021-2.849,1.874"/>
				<g>
					<path fill="#563B18" d="M1399.501,639.642c-8.839,8.517-17.648,16.944-26.984,24.841c-1.108,0.938,0.491,2.522,1.592,1.592
						c9.326-7.889,18.148-16.328,26.984-24.841C1402.139,640.225,1400.546,638.636,1399.501,639.642L1399.501,639.642z"/>
				</g>
			</g>
			<g>
				<path fill="#FFD77F" d="M1381.928,657.641c-2.919,2.173-6.142,3.701-9.805,3.465"/>
				<g>
					<path fill="#563B18" d="M1381.36,656.669c-2.779,2.019-5.731,3.44-9.237,3.312c-1.451-0.054-1.446,2.197,0,2.25
						c3.879,0.143,7.283-1.374,10.372-3.618C1383.657,657.769,1382.536,655.814,1381.36,656.669L1381.36,656.669z"/>
				</g>
			</g>
			<g>
				<path fill="#FFD77F" d="M1381.115,658.421c0,0-6.347-1.728-8.416-1.932"/>
				<g>
					<path fill="#563B18" d="M1381.414,657.336c-2.855-0.775-5.77-1.633-8.715-1.972c-1.44-0.165-1.424,2.086,0,2.25
						c2.732,0.313,5.468,1.172,8.117,1.892C1382.219,659.887,1382.813,657.716,1381.414,657.336L1381.414,657.336z"/>
				</g>
			</g>
			<g>
				<path fill="#FFD77F" d="M1379.961,660.153c0.915,1.934-0.269,5.258-1.594,7.464"/>
				<g>
					<path fill="#563B18" d="M1378.876,660.452c0.859,2.156-0.402,4.741-1.48,6.598c-0.729,1.257,1.215,2.389,1.943,1.135
						c1.364-2.349,2.789-5.616,1.707-8.33C1380.516,658.523,1378.338,659.104,1378.876,660.452L1378.876,660.452z"/>
				</g>
			</g>
			<g>
				<path fill="#FFD77F" d="M1381.894,659.236c1.562,1.628,2.141,4.512,1.294,6.886"/>
				<g>
					<path fill="#563B18" d="M1381.098,660.032c1.41,1.587,1.635,3.823,1.005,5.791c-0.443,1.386,1.729,1.975,2.17,0.598
						c0.882-2.757,0.352-5.802-1.583-7.98C1381.724,657.354,1380.138,658.951,1381.098,660.032L1381.098,660.032z"/>
				</g>
			</g>
		</g>
		<g>
			
				<ellipse fill="#9D7653" stroke="#563B18" stroke-width="2" stroke-miterlimit="10" cx="1341.011" cy="539.113" rx="29.257" ry="34.013"/>
			<path fill="#9D7653" stroke="#563B18" stroke-width="2" stroke-miterlimit="10" d="M1542.576,537.923
				c0,18.782-13.101,34.01-29.256,34.01c-16.16,0-29.258-15.228-29.258-34.01c0-18.788,13.098-34.012,29.258-34.012
				C1529.476,503.911,1542.576,519.135,1542.576,537.923z"/>
			<g>
				<g>
					<path fill="#563B18" d="M1321.63,546.119c-1.138-6.646-0.291-25.893,11.329-20.716c7.438,3.314,9.891,16.164,10.387,23.292
						c0.251,3.604-0.423,8.295-3.753,10.365c-4.792,2.98-8.062-6.117-8.892-9.039c-1.422-5-1.252-21.118,7.011-19.611
						c0.945,0.172,1.35-1.273,0.398-1.447c-9.951-1.814-10.049,14.458-9.047,20.559c0.724,4.405,3.246,10.22,8.043,11.359
						c3.645,0.865,6.015-2.893,7.024-5.751c1.995-5.646,0.137-12.715-1.621-18.166c-1.652-5.123-4.497-10.941-9.664-13.243
						c-4.197-1.87-8.359,0.939-10.611,4.341c-3.418,5.162-3.04,12.677-2.052,18.456
						C1320.346,547.47,1321.791,547.064,1321.63,546.119L1321.63,546.119z"/>
				</g>
			</g>
			<g>
				<g>
					<path fill="#563B18" d="M1534.979,545.447c1.205-7.804-0.133-26.458-12.686-22.74c-4.773,1.413-7.418,7.311-9.07,11.47
						c-2.342,5.894-3.619,12.92-2.347,19.187c0.717,3.53,3.287,7.102,7.213,6.739c4.774-0.44,6.887-6.848,7.889-10.604
						c1.647-6.177,0.717-23.301-9.192-21.323c-0.948,0.189-0.546,1.636,0.398,1.447c8.236-1.645,8.248,13.634,7.522,18.575
						c-0.562,3.82-2.739,10.046-7.306,10.468c-4.855,0.448-5.529-7.602-5.544-10.66c-0.036-7.606,2.944-18.442,9.366-23.094
						c5.037-3.647,9.846,1.443,11.535,5.923c1.673,4.438,1.485,9.606,0.773,14.214
						C1533.386,545.994,1534.831,546.401,1534.979,545.447L1534.979,545.447z"/>
				</g>
			</g>
			<path fill-rule="evenodd" clip-rule="evenodd" fill="#9D7653" stroke="#563B18" stroke-width="2" stroke-miterlimit="10" d="
				M1357.281,567.385c6.772,12.147-42.895-115.049,31.043-142.574c14.055-12.34,37.131-23.471,52.402-25.459
				c1.285,1.124-21.847,20.342-21.842,22.66c9.819-1.487,11.885-11.592,47.449-22.66c0.691,3.846-16.555,21.718-17.27,24.25
				c8.92-2.389,35.95-22.635,43.473-16.898c-8.121,6.574-9.91,11.092-12.533,17.071c49.493,13.237,29.766,113.604,18.14,144.423"/>
			<g>
				<path fill="#C7CACA" d="M1428.93,518.577c0,20.782-14.969,37.63-33.434,37.63s-33.435-16.848-33.435-37.63
					c0-20.786,14.97-37.637,33.435-37.637S1428.93,497.791,1428.93,518.577z"/>
				<path fill="#FFFFFF" d="M1425.645,518.644c0,13.616-9.514,24.658-21.249,24.658s-21.249-11.042-21.249-24.658
					c0-13.614,9.514-24.653,21.249-24.653S1425.645,505.029,1425.645,518.644z"/>
				<ellipse fill="#00B5DC" cx="1403.875" cy="522.146" rx="16.676" ry="21.353"/>
				<ellipse cx="1404.687" cy="523.55" rx="12.458" ry="15.047"/>
				<ellipse fill="#FFFFFF" cx="1409.401" cy="522.224" rx="4.713" ry="4.972"/>
			</g>
			<path fill="#C7CACA" d="M1488.564,518.77c0,20.779-13.99,37.624-31.252,37.624c-17.256,0-31.244-16.845-31.244-37.624
				c0-20.784,13.988-37.628,31.244-37.628C1474.574,481.142,1488.564,497.985,1488.564,518.77z"/>
			<path fill="#FFFFFF" d="M1428.109,518.747c0,13.612,9.513,24.651,21.248,24.651c11.736,0,21.249-11.039,21.249-24.651
				c0-13.621-9.513-24.66-21.249-24.66C1437.622,494.087,1428.109,505.126,1428.109,518.747z"/>
			<path fill="#00B5DC" d="M1433.203,522.243c0,11.792,7.467,21.355,16.676,21.355c9.207,0,16.675-9.563,16.675-21.355
				c0-11.791-7.468-21.351-16.675-21.351C1440.67,500.893,1433.203,510.452,1433.203,522.243z"/>
			<ellipse cx="1449.065" cy="523.65" rx="12.459" ry="15.047"/>
			<ellipse fill="#FFFFFF" cx="1455.125" cy="523.814" rx="4.713" ry="4.969"/>
			<path fill="#FFD77F" stroke="#563B18" stroke-width="2" stroke-miterlimit="10" d="M1497.074,576.99
				c-7.75,30.729-30.578,45.045-68.295,45.045c-37.719,0-56.72-14.912-68.295-45.045c-8.285-21.569,30.576-45.046,68.295-45.046
				C1466.496,531.944,1503.261,552.473,1497.074,576.99z"/>
			<path fill="#563B18" d="M1423.659,543.398c0,1.652-2.14,2.986-4.774,2.986c-2.634,0-4.771-1.334-4.771-2.986
				c0-1.649,2.137-2.988,4.771-2.988C1421.52,540.41,1423.659,541.749,1423.659,543.398z"/>
			<path fill="#563B18" d="M1439.813,543.398c0,1.652-2.136,2.986-4.77,2.986c-2.639,0-4.775-1.334-4.775-2.986
				c0-1.649,2.137-2.988,4.775-2.988C1437.677,540.41,1439.813,541.749,1439.813,543.398z"/>
			<g>
				<g>
					<path fill="#563B18" d="M1452.414,574.793c7.195,7.107,0,31.137-23.754,31.063c-23.803-0.069-32.913-19.082-23.786-31.425"/>
					<g>
						<path fill="#3F2F11" d="M1451.618,575.589c4.108,4.417,2.208,11.716-0.224,16.455c-3.896,7.593-11.756,11.771-20.016,12.587
							c-9.243,0.915-19.639-2.05-25.43-9.639c-4.582-6.006-4.339-13.937-0.104-19.993c0.834-1.191-1.118-2.314-1.943-1.135
							c-4.816,6.887-4.629,15.385,0.104,22.264c6.178,8.979,18.465,11.635,28.674,10.625c9.048-0.896,16.946-6.343,21.076-14.392
							c2.8-5.454,3.99-13.484-0.547-18.364C1452.22,572.933,1450.632,574.527,1451.618,575.589L1451.618,575.589z"/>
					</g>
				</g>
				<g>
					<path fill="#563B18" d="M1452.414,574.793c-9.465,0.316-35.993,1.149-47.512-0.051"/>
					<g>
						<path fill="#3C2310" d="M1452.414,573.668c-15.74,0.523-31.808,1.469-47.512-0.051c-1.444-0.14-1.431,2.111,0,2.25
							c15.704,1.52,31.771,0.574,47.512,0.051C1453.861,575.87,1453.865,573.62,1452.414,573.668L1452.414,573.668z"/>
					</g>
				</g>
				<g>
					<path fill="#ED3681" d="M1422.018,604.006c2.202,0.232,4.402,0.502,6.627,0.326c1.362-0.108,2.715-0.274,4.064-0.451
						c1.61,0.098,4.971-0.971,6.902-1.458c2.845-1.598,5.43-2.935,7.542-4.674c-3.521-4.392-5.931-5.623-8.521-6.886
						c-7.541-2.821-22.4-3.27-28.47,7.595c0.623,0.549,1.367,1.153,2.196,1.777C1415.571,601.558,1418.702,603.101,1422.018,604.006
						z"/>
				</g>
			</g>
			<g>
				<g>
					<path fill="#C1C2C1" d="M1331.008,507.38c22.728-49.396,25.296,52.543,8.588,47.279c0,0,4.423-21.517,3.625-27.367
						C1341.431,514.107,1339.498,494.248,1331.008,507.38"/>
					<g>
						<path fill="#212152" d="M1331.979,507.947c1.29-2.766,7.301-16.899,12.161-11.874c4.309,4.455,4.514,13.767,4.899,19.472
							c0.326,4.838,0.985,40.83-9.146,38.029c0.262,0.461,0.524,0.923,0.786,1.384c2.213-10.817,4.471-21.663,2.996-32.684
							c-0.793-5.928-1.102-13.573-4.729-18.607c-3.04-4.221-7.041,0.405-8.912,3.146
							C1329.216,508.014,1331.166,509.138,1331.979,507.947c1.447-2.119,3.812-5.367,5.812-1.928
							c1.306,2.244,1.756,5.126,2.27,7.631c1.081,5.272,2.236,10.999,2.112,16.394c-0.186,8.114-2.038,16.381-3.662,24.316
							c-0.123,0.601,0.166,1.212,0.786,1.384c6.289,1.738,8.862-7.127,9.973-11.543c2.494-9.917,2.693-20.654,1.86-30.795
							c-0.499-6.078-1.073-15.971-6.582-19.935c-6.521-4.692-12.815,9.705-14.512,13.341
							C1329.427,508.118,1331.366,509.262,1331.979,507.947L1331.979,507.947z"/>
					</g>
				</g>
				<path fill="#C1C2C1" stroke="#212152" stroke-width="2" stroke-miterlimit="10" d="M1345.987,545.788
					c0,5.992-4.042,10.849-9.024,10.849c-4.983,0-9.023-4.856-9.023-10.849c0-5.986,4.04-10.843,9.023-10.843
					C1341.945,534.945,1345.987,539.802,1345.987,545.788z"/>
			</g>
			<g>
				<g>
					<path fill="#C1C2C1" d="M1526.806,507.686c-22.721-49.398-25.292,52.545-8.587,47.282c0,0-4.422-21.521-3.626-27.368
						C1516.385,514.414,1518.316,494.555,1526.806,507.686"/>
					<g>
						<path fill="#212152" d="M1527.777,507.118c-1.962-4.206-7.38-17.087-14.258-13.497c-5.866,3.063-6.336,14.567-6.832,20.092
							c-0.895,9.983-0.503,20.406,1.717,30.2c1.021,4.506,3.653,13.925,10.113,12.14c0.62-0.172,0.909-0.783,0.786-1.384
							c-1.581-7.728-3.093-15.585-3.622-23.461c-0.355-5.285,0.936-10.851,1.842-16.031c0.449-2.562,1.04-5.095,1.912-7.547
							c1.607-4.519,4.338-2.395,6.398,0.623C1526.647,509.443,1528.598,508.319,1527.777,507.118
							c-1.99-2.914-5.391-6.963-8.735-3.373c-4.003,4.296-4.123,13.112-4.865,18.537c-1.522,11.139,0.72,22.046,2.957,32.984
							c0.262-0.461,0.524-0.923,0.786-1.384c-10.151,2.806-9.434-33.202-9.142-38.032c0.36-5.961,0.72-14.69,4.897-19.472
							c4.611-5.277,10.993,9.375,12.158,11.874C1526.447,509.567,1528.387,508.424,1527.777,507.118L1527.777,507.118z"/>
					</g>
				</g>
				
					<ellipse fill="#C1C2C1" stroke="#212152" stroke-width="2" stroke-miterlimit="10" cx="1520.852" cy="546.095" rx="9.023" ry="10.848"/>
			</g>
			<g>
				<g>
					<path fill="#2A5026" d="M1505.431,427.643c-4.737-22.447-9.479-41.328-36.183-53.088c-24.554-11.403-53.416-9.264-76.246,3.564
						c-13.354,7.481-23.69,17.102-27.999,29.571c-3.017,8.194-3.447,17.103-6.461,24.942"/>
					<g>
						<path fill="#081B0F" d="M1506.154,427.443c-3.051-14.401-6.58-28.838-16.734-40.022
							c-12.435-13.695-32.762-20.023-50.713-20.969c-19.805-1.044-39.512,5.509-55.486,17.042
							c-6.846,4.942-12.68,11.18-16.658,18.645c-5.008,9.396-5.181,20.402-8.744,30.294c-0.328,0.912,1.121,1.302,1.447,0.398
							c3.083-8.558,3.816-17.711,6.945-26.268c3.28-8.972,10.278-16.134,17.767-21.774c15.635-11.776,35.267-17.481,54.729-16.838
							c17.798,0.588,37.177,7.485,49.652,20.529c10.139,10.601,13.409,25.486,16.348,39.36
							C1504.908,428.788,1506.354,428.387,1506.154,427.443L1506.154,427.443z"/>
					</g>
				</g>
				<g>
					<path fill="#2A5026" d="M1362.066,443.779c-15.891,5.807-30.669,17.889-40.121,27.845c8.165-1.382,14.604,3.931,28.954-0.112
						c11.792-3.33,25.124-2.189,37.368-0.277c36.759,5.732,53.316,5.403,79.454,1.106c28.173-4.636,44.582-4.53,63.569-1.938
						c7.656,1.047,21.475,1.109,11.595-5.255c-7.73-4.701-22.566-16.419-32.717-17.705
						C1466.866,441.958,1395.997,440.248,1362.066,443.779"/>
					<g>
						<path fill="#081B0F" d="M1361.867,443.056c-15.495,5.878-29.039,16.156-40.452,28.038c-0.567,0.59,0.024,1.35,0.729,1.254
							c4.623-0.629,9.167,0.626,13.732,1.201c6.504,0.819,12.352-0.729,18.631-2.146c15.34-3.467,31.409,0.407,46.655,2.451
							c22.525,3.021,44.34,2.858,66.758-0.789c13.631-2.219,27.345-3.82,41.173-3.681c10.43,0.105,20.771,2.488,31.166,2.274
							c1.876-0.038,5.434-0.048,6.551-1.954c1.283-2.191-2.161-4.253-3.546-5.204c-8.643-5.934-17.517-12.355-27.289-16.274
							c-4.991-2.002-10.668-2.141-15.955-2.699c-6.488-0.686-12.991-1.234-19.497-1.726c-14.157-1.068-28.345-1.741-42.535-2.175
							c-25.225-0.77-50.779-1.151-75.922,1.403c-0.953,0.097-0.962,1.598,0,1.5c21.607-2.195,43.493-2.067,65.182-1.667
							c24.726,0.458,49.488,1.705,74.086,4.303c5.706,0.603,11.149,1.118,16.46,3.435c5.597,2.44,10.755,5.935,15.815,9.313
							c2.098,1.401,4.18,2.825,6.283,4.218c1.081,0.716,7.099,3.898,5.116,5.215c-3.526,2.341-11.135,0.653-15.038,0.131
							c-11.111-1.487-22.272-1.913-33.465-1.299c-13.291,0.729-26.318,3.261-39.486,5.007c-22.345,2.963-44.412,0.991-66.603-2.371
							c-12.653-1.917-25.392-3.323-38.022-0.47c-6.879,1.555-12.793,2.357-19.786,1.233c-3.661-0.589-7.152-1.18-10.862-0.676
							c0.243,0.418,0.486,0.836,0.729,1.254c11.229-11.689,24.54-21.867,39.79-27.651
							C1363.161,444.163,1362.773,442.713,1361.867,443.056L1361.867,443.056z"/>
					</g>
				</g>
				<polygon fill="#19171C" stroke="#081B0F" stroke-miterlimit="10" points="1512.304,448.105 1352.099,448.105 1359.83,425.662 
					1505.859,425.662 				"/>
			</g>
		</g>
		<g>
			<path fill="#8E8D8F" d="M1430.82,723.161c3.806-0.486,5.65,0.469,9.458-0.016c-0.416,6.073-1.577,7.877-1.835,12.218
				c5.194-0.749,7.626,6.525,3.463,9.764c-2.271-0.105-4.955-1.144-7.364-2.133c-3.746-1.51-4.072-1.278-3.956-5.269
				C1430.572,732.855,1430.556,727.982,1430.82,723.161"/>
			<g>
				<path fill="#2A2D39" d="M1430.82,723.911c1.81-0.152,3.528-0.106,5.335,0.041c2.879,0.233,3.448-0.354,2.927,3.148
					c-0.414,2.778-1.16,5.453-1.389,8.263c-0.032,0.393,0.365,0.771,0.75,0.75c4.09-0.215,5.819,3.919,4.075,7.255
					c-1.241,2.373-8.53-1.342-10.126-2.071c-2.044-0.934-1.063-6.82-1.061-8.44c0.004-3.234,0.081-6.465,0.238-9.695
					c0.047-0.968-1.453-0.963-1.5,0c-0.21,4.313-0.244,8.624-0.238,12.941c0.002,1.444-0.57,4.518,0.753,5.718
					c1.409,1.277,3.509,1.797,5.23,2.488c2.187,0.879,5.357,2.518,7.325,0.697c2.784-2.576,1.745-7.236-0.85-9.419
					c-1.995-1.679-3.3,0.228-2.745-3.147c0.513-3.121,1.217-6.13,1.482-9.294c0.032-0.384-0.366-0.782-0.75-0.75
					c-3.168,0.266-6.29-0.252-9.458,0.016C1429.863,722.492,1429.855,723.992,1430.82,723.911L1430.82,723.911z"/>
			</g>
		</g>
		<g>
			<path fill="#8E8D8F" d="M1410.589,723.217c3.803-0.52,5.655,0.419,9.458-0.098c-0.363,6.076-1.507,7.891-1.729,12.233
				c5.189-0.794,7.684,6.458,3.549,9.733c-2.273-0.086-4.969-1.102-7.381-2.069c-3.762-1.477-4.084-1.242-4.001-5.233
				C1410.426,732.914,1410.369,728.041,1410.589,723.217"/>
			<g>
				<path fill="#2A2D39" d="M1410.589,723.967c1.808-0.169,3.528-0.137,5.336-0.006c2.878,0.208,3.453-0.39,2.962,3.117
					c-0.389,2.781-1.113,5.464-1.318,8.274c-0.028,0.391,0.363,0.773,0.75,0.75c4.15-0.254,5.845,3.901,4.148,7.214
					c-1.223,2.389-8.534-1.258-10.141-1.975c-2.058-0.918-1.126-6.684-1.14-8.427c-0.024-3.234,0.025-6.467,0.152-9.698
					c0.038-0.968-1.462-0.964-1.5,0c-0.17,4.314-0.168,8.626-0.123,12.943c0.015,1.411-0.511,4.547,0.798,5.713
					c1.421,1.267,3.52,1.768,5.249,2.445c2.187,0.857,5.385,2.476,7.333,0.641c2.76-2.6,1.695-7.249-0.922-9.411
					c-1.916-1.584-3.287,0.145-2.779-3.123c0.485-3.125,1.164-6.14,1.402-9.306c0.028-0.381-0.363-0.786-0.75-0.75
					c-3.166,0.293-6.292-0.197-9.458,0.098C1409.635,722.556,1409.626,724.057,1410.589,723.967L1410.589,723.967z"/>
			</g>
		</g>
	</g>
</g>
</svg>
